<svg width="99" height="82" viewBox="0 0 99 82" fill="none" xmlns="http://www.w3.org/2000/svg">
<g clip-path="url(#clip0_2_555)">
<path fill-rule="evenodd" clip-rule="evenodd" d="M45.0171 0.0208875C51.5738 -0.27004 57.5092 1.47745 62.8237 5.26337C63.5848 5.83048 64.3212 6.42921 65.0339 7.0596C58.9471 3.2586 52.3445 1.92188 45.2256 3.04941C38.4137 4.36776 32.8187 7.70265 28.4406 13.054C23.4948 19.4889 21.6322 26.7434 22.8526 34.8176C23.9425 40.9921 26.7574 46.2066 31.2972 50.4615C26.8964 47.5011 23.6089 43.5953 21.4347 38.7443C18.8947 32.7498 18.4359 26.5953 20.0585 20.2807C22.3565 12.4384 27.1174 6.63887 34.3414 2.88232C37.7175 1.22239 41.276 0.268582 45.0171 0.0208875Z" fill="#606062"/>
<path fill-rule="evenodd" clip-rule="evenodd" d="M33.6325 13.3464C36.5722 10.6408 39.9918 8.76803 43.8911 7.72797C49.1735 6.40385 54.3724 6.66844 59.4876 8.52165C64.4267 10.4198 68.3534 13.5736 71.2683 17.9832C74.8885 23.8666 75.6808 30.1186 73.6453 36.7392C72.1883 40.9825 69.7212 44.5123 66.2433 47.3286C66.2153 47.3566 66.1878 47.3566 66.1599 47.3286C71.2062 42.2611 73.4231 36.1414 72.8113 28.9694C72.0507 23.2842 69.5556 18.5291 65.3258 14.704C60.9059 10.8921 55.7624 8.81736 49.8962 8.47988C43.9049 8.25284 38.4836 9.87505 33.6325 13.3464Z" fill="#606062"/>
<path fill-rule="evenodd" clip-rule="evenodd" d="M48.4783 12.6781C48.7715 13.0133 49.0634 13.3475 49.354 13.6806C51.2227 15.9229 52.8562 18.3318 54.254 20.9073C55.4513 23.1539 56.2574 25.535 56.6727 28.0504C56.8036 29.4975 56.8107 30.9457 56.6936 32.3948C56.5939 32.7163 56.538 33.0505 56.5267 33.3974C55.9571 35.7919 54.9771 38.0058 53.5868 40.0392C52.1885 41.9867 50.5968 43.7758 48.8119 45.407C48.7723 45.4271 48.7306 45.4342 48.6868 45.4279C48.696 45.4772 48.6822 45.519 48.6451 45.5532C48.0467 46.09 47.442 46.6193 46.8311 47.1406C47.2106 45.5771 47.5721 44.0039 47.9153 42.4203C48.1576 41.1459 48.359 39.8648 48.52 38.5772C48.5609 38.4178 48.5888 38.2507 48.6034 38.0759C48.6685 37.3228 48.7377 36.5709 48.8119 35.8202C48.8419 35.8027 48.8628 35.7749 48.8745 35.7366C48.8953 35.4027 48.9024 35.0686 48.8953 34.7341C48.9374 33.5508 48.9445 32.3672 48.9162 31.1834C48.8866 30.8006 48.8515 30.4246 48.8119 30.0555C48.8219 29.6844 48.794 29.3224 48.7285 28.9694C48.6126 27.7513 48.4041 26.5538 48.103 25.377C48.0254 24.9159 47.9003 24.4703 47.7277 24.0403C47.658 24.9315 47.5888 25.8227 47.5192 26.7137C47.4132 27.6739 47.3161 28.6346 47.2273 29.596C47.1526 30.1625 47.0692 30.7334 46.977 31.3087C46.977 31.3366 46.977 31.3644 46.977 31.3923C46.9153 31.6061 46.8736 31.8289 46.8519 32.0606C46.5855 33.6299 46.2656 35.1894 45.8928 36.7392C45.799 36.9479 45.7435 37.1707 45.726 37.4075C45.5688 37.8113 45.4437 38.2291 45.3507 38.6607C45.2189 39.0626 45.0938 39.4664 44.9754 39.8721C44.8707 40.1584 44.7735 40.4508 44.6834 40.7494C44.6121 40.8935 44.5567 41.0467 44.5166 41.2089C44.3507 41.6369 44.1839 42.0686 44.0162 42.5038C43.4357 43.9525 42.7823 45.3657 42.0562 46.7438C42.0145 46.7718 41.9728 46.7718 41.9311 46.7438C41.5411 46.3311 41.1658 45.9062 40.8052 45.4697C40.7708 45.4325 40.7291 45.4187 40.6801 45.4279C40.6108 45.2337 40.4996 45.0666 40.3465 44.9267C40.1386 44.6351 39.9162 44.3565 39.6792 44.0912C38.7817 42.879 38.0102 41.584 37.3648 40.2063C37.1038 39.5929 36.8745 38.9663 36.6767 38.3266C36.5101 37.7152 36.3711 37.1025 36.2597 36.4885C36.2586 36.2567 36.2307 36.0339 36.1763 35.8202C36.0479 33.6675 36.3885 31.5928 37.198 29.596C37.9086 27.9528 38.7427 26.3793 39.7001 24.8757C40.9098 23.0792 42.1192 21.283 43.3281 19.487C44.4829 17.7591 45.442 15.9211 46.2056 13.973C46.55 13.0063 46.8073 12.0176 46.977 11.0071C47.4925 11.5514 47.9929 12.1084 48.4783 12.6781Z" fill="#017701"/>
<path fill-rule="evenodd" clip-rule="evenodd" d="M48.4783 12.678C48.5751 12.6848 48.6447 12.7335 48.6868 12.8242C48.7406 12.8447 48.7965 12.8517 48.8536 12.8451C48.8536 12.7894 48.8536 12.7337 48.8536 12.678C49.0575 12.6818 49.0713 12.7305 48.8953 12.8242C48.9233 12.8521 48.9508 12.8799 48.9787 12.9078C48.9095 12.9381 48.8886 12.9868 48.9162 13.054C49.0225 13.2445 49.1618 13.4116 49.3332 13.5553C49.3532 13.5949 49.3603 13.6366 49.354 13.6806C49.0634 13.3474 48.7715 13.0133 48.4783 12.678Z" fill="#E9FAE7"/>
<path fill-rule="evenodd" clip-rule="evenodd" d="M33.6325 13.3464C33.575 13.4539 33.4916 13.5166 33.3823 13.5344C33.4496 13.4456 33.533 13.3829 33.6325 13.3464Z" fill="#A3A3A3"/>
<path fill-rule="evenodd" clip-rule="evenodd" d="M48.103 25.377C48.0613 25.377 48.0196 25.377 47.9779 25.377C48.0058 25.1476 47.9575 24.9388 47.8319 24.7504C47.8157 24.8429 47.774 24.8986 47.7068 24.9175C47.6831 25.4056 47.6484 25.893 47.6026 26.3795C47.6017 26.5086 47.5738 26.62 47.5192 26.7137C47.5888 25.8226 47.658 24.9315 47.7277 24.0402C47.9003 24.4702 48.0254 24.9158 48.103 25.377Z" fill="#EAF8E8"/>
<path fill-rule="evenodd" clip-rule="evenodd" d="M48.7285 28.9694C48.794 29.3224 48.8219 29.6844 48.8119 30.0555C48.7782 29.9807 48.7573 29.8971 48.7494 29.8049C48.7285 29.5268 48.7214 29.2483 48.7285 28.9694Z" fill="#D4F2D4"/>
<path fill-rule="evenodd" clip-rule="evenodd" d="M47.2273 29.596C47.2106 30.0729 47.1622 30.5463 47.0813 31.0163C47.065 31.1251 47.0304 31.2226 46.9771 31.3087C47.0692 30.7334 47.1526 30.1625 47.2273 29.596Z" fill="#D8F5D8"/>
<path fill-rule="evenodd" clip-rule="evenodd" d="M46.977 31.3923C46.98 31.5676 46.9662 31.7416 46.9353 31.9144C46.9307 31.9847 46.9032 32.0334 46.8519 32.0606C46.8736 31.8289 46.9153 31.6061 46.977 31.3923Z" fill="#D1EFCA"/>
<path fill-rule="evenodd" clip-rule="evenodd" d="M56.6935 32.3948C56.6977 32.7479 56.6422 33.0821 56.5267 33.3973C56.538 33.0505 56.5939 32.7163 56.6935 32.3948Z" fill="#DCF3D7"/>
<path fill-rule="evenodd" clip-rule="evenodd" d="M48.8953 34.7341C48.9024 35.0685 48.8953 35.4027 48.8745 35.7366C48.8628 35.7749 48.8419 35.8027 48.8119 35.8202C48.8228 35.4506 48.8507 35.0886 48.8953 34.7341Z" fill="#3B8D41"/>
<path fill-rule="evenodd" clip-rule="evenodd" d="M36.1763 35.8202C36.2308 36.0339 36.2586 36.2567 36.2597 36.4886C36.1863 36.2775 36.1585 36.0547 36.1763 35.8202Z" fill="#C6EDC7"/>
<path fill-rule="evenodd" clip-rule="evenodd" d="M45.8928 36.7392C45.8999 36.8791 45.8928 37.0184 45.8719 37.1569C45.8473 37.2622 45.799 37.3457 45.726 37.4076C45.7435 37.1707 45.799 36.9479 45.8928 36.7392Z" fill="#E5F7DB"/>
<path fill-rule="evenodd" clip-rule="evenodd" d="M36.2597 36.4885C36.3711 37.1025 36.5101 37.7151 36.6767 38.3265C36.6351 38.3278 36.6073 38.3069 36.5933 38.2639C36.5638 38.1302 36.5291 37.9979 36.4891 37.867C36.4718 37.8479 36.4509 37.834 36.4265 37.8253C36.3169 37.3861 36.2613 36.9406 36.2597 36.4885Z" fill="#E5F8E2"/>
<path fill-rule="evenodd" clip-rule="evenodd" d="M48.6034 38.0759C48.5888 38.2507 48.5609 38.4178 48.52 38.5772C48.4954 38.3904 48.5233 38.2233 48.6034 38.0759Z" fill="#CAEBC3"/>
<path fill-rule="evenodd" clip-rule="evenodd" d="M45.726 37.4075C45.7101 37.6098 45.7377 37.8047 45.8094 37.9924C45.7956 38.0202 45.7815 38.048 45.7677 38.0759C45.7373 37.9225 45.6747 37.8946 45.58 37.9924C45.5713 38.1769 45.5438 38.3579 45.4966 38.5354C45.4791 38.6159 45.4303 38.6576 45.3507 38.6607C45.4437 38.229 45.5688 37.8113 45.726 37.4075Z" fill="#E5F6E4"/>
<path fill-rule="evenodd" clip-rule="evenodd" d="M44.9754 39.8721C44.9507 40.1973 44.8532 40.4897 44.6834 40.7494C44.7735 40.4508 44.8707 40.1584 44.9754 39.8721Z" fill="#D9F7D9"/>
<path fill-rule="evenodd" clip-rule="evenodd" d="M44.5167 41.2089C44.4954 41.5606 44.3978 41.8877 44.2247 42.1905C44.2039 42.295 44.183 42.3994 44.1622 42.5038C44.1209 42.5318 44.0725 42.5318 44.0162 42.5038C44.1839 42.0685 44.3507 41.6369 44.5167 41.2089Z" fill="#E0F8E1"/>
<path fill-rule="evenodd" clip-rule="evenodd" d="M39.6792 44.0912C39.9162 44.3564 40.1386 44.6351 40.3465 44.9266C40.2121 44.8723 40.1148 44.775 40.0545 44.6342C40.005 44.5954 39.9494 44.5816 39.8877 44.5925C39.8347 44.4191 39.7651 44.252 39.6792 44.0912Z" fill="#DEF6DE"/>
<path fill-rule="evenodd" clip-rule="evenodd" d="M87.0525 49.6052C86.9411 49.6052 86.8302 49.6052 86.7188 49.6052C86.0595 49.5125 85.3923 49.4987 84.7172 49.5634C84.7218 49.5375 84.7355 49.5167 84.7589 49.5008C85.3289 49.4728 85.8986 49.4728 86.4686 49.5008C86.6713 49.5225 86.8661 49.5576 87.0525 49.6052Z" fill="#E6F9E4"/>
<path fill-rule="evenodd" clip-rule="evenodd" d="M86.7188 49.6052C86.0516 49.5497 85.3844 49.5497 84.7172 49.6052C84.7172 49.5914 84.7172 49.5772 84.7172 49.5634C85.3923 49.4987 86.0595 49.5125 86.7188 49.6052Z" fill="#307E2B"/>
<path fill-rule="evenodd" clip-rule="evenodd" d="M86.7188 49.6052C86.8302 49.6052 86.9411 49.6052 87.0524 49.6052C88.3273 49.8203 89.4949 50.3007 90.5554 51.0464C91.1972 51.5359 91.8018 52.0719 92.3694 52.6546C92.5154 52.8288 92.6613 53.0026 92.8073 53.1768C92.5337 53.0824 92.256 52.985 91.9732 52.8844C91.5641 52.762 91.1471 52.6855 90.7222 52.6546C89.9786 52.6062 89.228 52.5991 88.4703 52.6337C88.2113 52.6496 87.9611 52.6847 87.7197 52.7382C87.1496 52.7641 86.5937 52.8476 86.0516 52.9888C85.3735 53.0828 84.7063 53.2081 84.0499 53.3648C83.8998 53.4049 83.7467 53.4328 83.5912 53.4483C83.2947 53.5039 83.0028 53.5598 82.7155 53.6154C82.4786 53.607 82.2563 53.6488 82.0482 53.7407C82.0482 53.7545 82.0482 53.7687 82.0482 53.7825C81.5044 53.8314 80.9623 53.894 80.4219 53.9705C80.3414 53.988 80.2997 54.0369 80.2967 54.1167C79.9873 54.1793 79.6816 54.2353 79.3793 54.2838C79.1479 54.285 78.9256 54.3126 78.7121 54.3673C78.6341 54.4003 78.5507 54.4279 78.4619 54.4509C78.4298 54.4237 78.3881 54.4099 78.3368 54.4091C77.3576 54.5599 76.3705 54.6159 75.3759 54.5762C73.7721 54.5615 72.3401 54.067 71.0807 53.0932C70.5644 52.5966 70.1336 52.0326 69.7879 51.4014C69.8017 51.3877 69.8158 51.3734 69.8296 51.3597C69.9055 51.4119 69.9889 51.4394 70.0798 51.4432C70.4956 51.6049 70.9264 51.7302 71.3726 51.8192C71.4005 51.8192 71.428 51.8192 71.456 51.8192C71.8592 51.9357 72.2762 51.9917 72.707 51.9863C73.8643 52.0573 75.0177 51.9808 76.1683 51.7565C77.019 51.5581 77.8672 51.3492 78.7121 51.1299C80.3697 50.5722 82.0516 50.0985 83.758 49.7096C84.0762 49.6574 84.396 49.6228 84.7171 49.6052C85.3844 49.5496 86.0516 49.5496 86.7188 49.6052Z" fill="#027703"/>
<path fill-rule="evenodd" clip-rule="evenodd" d="M70.0798 51.4432C70.4197 51.5384 70.7671 51.6011 71.1224 51.6312C71.2208 51.683 71.3042 51.7456 71.3726 51.8191C70.9264 51.7302 70.4956 51.6048 70.0798 51.4432Z" fill="#E8F9E5"/>
<path fill-rule="evenodd" clip-rule="evenodd" d="M71.456 51.8192C71.888 51.8505 72.305 51.9065 72.707 51.9862C72.2763 51.9917 71.8592 51.9357 71.456 51.8192Z" fill="#E1F6D9"/>
<path fill-rule="evenodd" clip-rule="evenodd" d="M90.7222 52.6546C89.7197 52.6408 88.7188 52.6684 87.7197 52.7382C87.9611 52.6847 88.2113 52.6496 88.4703 52.6337C89.228 52.5991 89.9787 52.6062 90.7222 52.6546Z" fill="#E8FAE8"/>
<path fill-rule="evenodd" clip-rule="evenodd" d="M11.6974 52.6546C11.7148 52.6847 11.7426 52.7056 11.7808 52.7173C12.7421 52.7899 13.6943 52.922 14.6373 53.1141C14.7264 53.0899 14.8168 53.0761 14.9084 53.0723C14.931 54.0619 14.9727 55.0507 15.0335 56.0382C13.8217 55.6735 12.5846 55.4438 11.322 55.349C10.4618 55.3122 9.61385 55.3957 8.77823 55.5996C8.66763 55.6142 8.58423 55.6631 8.52802 55.7458C8.51413 55.7458 8.5002 55.7458 8.48632 55.7458C8.47652 55.7207 8.45566 55.7069 8.42376 55.704C7.87038 55.8164 7.37688 56.0461 6.94335 56.3933C6.85544 56.4083 6.77204 56.4363 6.69314 56.4768C6.53813 56.618 6.37133 56.7433 6.19272 56.8528C5.91294 57.1184 5.66273 57.3829 5.44209 57.6465C5.46527 57.6623 5.47916 57.6832 5.48379 57.7091C5.10026 58.2267 4.78053 58.7835 4.52465 59.38C4.43349 59.4352 4.37093 59.5187 4.33699 59.6307C4.29445 59.7785 4.24579 59.9247 4.19103 60.0693C4.21076 60.2067 4.17602 60.3391 4.08678 60.4661C3.88213 61.5835 3.89603 62.6976 4.12848 63.8079C4.156 63.884 4.20467 63.9399 4.27444 63.975C4.36326 64.2699 4.46059 64.5624 4.56635 64.8523C4.56472 64.8974 4.55079 64.9391 4.52465 64.9776C4.63445 65.1856 4.74567 65.3945 4.85826 65.6042C5.02678 65.7913 5.18666 65.986 5.33783 66.189C5.41427 66.3005 5.51853 66.3699 5.6506 66.3979C5.64597 66.4238 5.63208 66.4446 5.60889 66.4605C6.53113 67.2981 7.61537 67.7993 8.86163 67.9643C9.84225 68.0984 10.8222 68.0913 11.8016 67.9434C11.8615 67.946 11.9171 67.9597 11.9684 67.9852C12.1187 67.9426 12.2507 67.8729 12.3646 67.7764C12.4418 67.7517 12.5183 67.7237 12.5939 67.6928C12.8593 67.3093 13.1303 66.9334 13.4071 66.5649C13.4688 66.5758 13.5243 66.562 13.5739 66.5232C13.6265 66.4079 13.703 66.3101 13.8033 66.2308C13.8392 66.1643 13.8671 66.095 13.8867 66.0219C14.1183 65.7404 14.3407 65.4479 14.5539 65.1447C14.6265 65.0273 14.6752 64.902 14.6999 64.7687C14.7256 64.7733 14.7465 64.7871 14.7624 64.8105C15.0066 64.4964 15.2568 64.1622 15.5131 63.8079C15.5269 63.8497 15.5409 63.8915 15.5548 63.9333C15.5677 63.8802 15.5885 63.8318 15.6173 63.7871C15.7835 63.7875 15.9086 63.7181 15.9926 63.5782C15.984 63.4575 15.9701 63.3393 15.9509 63.2231C16.1337 62.8802 16.3561 62.5669 16.6182 62.2832C16.6557 62.1362 16.7461 62.0038 16.8892 61.8864C16.9668 61.7866 17.0224 61.6754 17.056 61.5522C17.2254 61.3968 17.3783 61.2297 17.5147 61.0509C17.5982 60.9118 17.6816 60.7723 17.765 60.6332C17.7788 60.647 17.7928 60.6612 17.8067 60.675C17.9153 60.4427 18.0543 60.2339 18.2237 60.0484C18.2707 59.9711 18.2916 59.8876 18.2862 59.7978C18.4887 59.4748 18.7111 59.1687 18.9535 58.8788C19.0025 58.8879 19.0442 58.8742 19.0786 58.837C19.6224 58.1022 20.1507 57.3574 20.6632 56.6021C20.64 56.5863 20.6262 56.5654 20.6215 56.5395C20.6996 56.5244 20.7621 56.4827 20.8092 56.4142C21.1675 55.9246 21.5081 55.4513 21.8309 54.9939C21.8257 54.9684 21.8118 54.9546 21.7892 54.9521C21.7892 54.9383 21.7892 54.9241 21.7892 54.9103C21.8588 54.8999 21.9214 54.8719 21.9768 54.8268C22.3242 54.3393 22.6717 53.8522 23.0194 53.3647C23.0398 53.3109 23.0468 53.2549 23.0402 53.1977C23.1343 53.1496 23.2107 53.0803 23.2696 52.9888C25.2418 52.9892 27.2226 52.9892 29.2121 52.9888C29.2121 58.9205 29.2121 64.8523 29.2121 70.784C28.0444 70.784 26.8768 70.784 25.7091 70.784C25.7161 65.8966 25.7091 61.0092 25.6883 56.1217C25.4974 56.2537 25.3931 56.4346 25.3755 56.6648C25.3498 56.6602 25.329 56.6464 25.313 56.623C24.951 57.0834 24.6035 57.5571 24.2704 58.0433C24.25 58.0972 24.243 58.1532 24.2496 58.2104C24.0513 58.5103 23.8428 58.8027 23.6241 59.0876C23.4893 59.1595 23.3712 59.2568 23.2696 59.38C22.8335 60.0012 22.3886 60.614 21.9351 61.218C21.9147 61.2719 21.9077 61.3279 21.9143 61.3851C21.8363 61.4002 21.7737 61.4419 21.7266 61.5104C21.2271 62.2193 20.7127 62.9157 20.1837 63.5991C20.0775 63.7394 20.001 63.8927 19.9543 64.0586C19.9286 64.054 19.9077 64.0402 19.8917 64.0168C19.5741 64.5005 19.2266 64.96 18.8492 65.3953C18.7575 65.5423 18.6672 65.6886 18.5781 65.8339C18.6013 65.8498 18.6152 65.8707 18.6198 65.8966C18.5467 65.9204 18.4771 65.9555 18.4113 66.001C18.4252 66.0148 18.4392 66.029 18.453 66.0428C18.4148 66.0582 18.3801 66.0791 18.3488 66.1054C18.1101 66.5299 17.8321 66.9196 17.5147 67.2751C17.4951 67.3202 17.5021 67.362 17.5356 67.4004C17.5217 67.4422 17.4939 67.4702 17.4522 67.4839C17.4148 67.438 17.3801 67.438 17.3479 67.4839C16.9886 68.0232 16.5994 68.5383 16.1803 69.0295C15.8442 69.5985 15.4619 70.1344 15.0335 70.6378C15.0649 70.6658 15.0788 70.7005 15.0752 70.7422C13.0457 70.7493 11.0162 70.7422 8.98674 70.7213C7.6793 70.6641 6.41432 70.4064 5.19188 69.9485C5.16339 69.9636 5.13558 69.9778 5.10847 69.9903C4.86235 69.9172 4.62607 69.8199 4.39954 69.6979C4.44983 69.6403 4.43595 69.5914 4.35784 69.5517C3.97249 69.347 3.59717 69.1239 3.23189 68.8833C3.00948 68.7162 2.78707 68.5492 2.56466 68.3821C2.39349 68.1598 2.22668 67.9581 2.06424 67.7764C1.9998 67.7367 1.9303 67.7225 1.85573 67.7346C1.38942 67.2187 1.028 66.6339 0.771488 65.9801C0.793519 65.9292 0.821322 65.8803 0.854892 65.8339C0.733248 65.6647 0.642897 65.4768 0.58383 65.27C0.166107 63.8514 0.0271012 62.4035 0.166813 60.9256C0.226694 60.3734 0.330948 59.8303 0.479576 59.2965C0.465677 59.2685 0.451773 59.2409 0.437874 59.2129C0.591695 58.9732 0.675099 58.7087 0.688085 58.4193C0.800738 58.0525 0.953646 57.7045 1.1468 57.3749C1.17255 57.3795 1.1934 57.3933 1.20936 57.4167C1.45957 57.0128 1.70978 56.6092 1.95999 56.2053C2.2188 55.9279 2.48292 55.6493 2.75232 55.3698C2.76622 55.3836 2.78013 55.3978 2.79402 55.4116C2.89003 55.2763 2.98039 55.1372 3.06509 54.9939C3.10662 54.9901 3.14137 55.0043 3.16934 55.0357C3.65525 54.597 4.19041 54.2353 4.77486 53.9496C4.75972 53.9212 4.74583 53.8932 4.73316 53.866C4.77469 53.8623 4.80943 53.8765 4.83741 53.9078C4.97373 53.7678 5.11969 53.7536 5.27528 53.866C5.31089 53.8234 5.35259 53.7883 5.40038 53.7616C5.32528 53.7482 5.31139 53.7206 5.35868 53.678C5.42582 53.6158 5.4953 53.6087 5.56719 53.6572C5.64105 53.6346 5.65493 53.5999 5.60889 53.5527C5.9787 53.4107 6.35402 53.2854 6.73484 53.1768C6.78063 53.1446 6.78063 53.1099 6.73484 53.0723C6.74873 53.0723 6.76266 53.0723 6.77654 53.0723C6.8451 53.0636 6.90765 53.0773 6.9642 53.1141C7.68281 52.9086 8.42647 52.7762 9.19525 52.7173C9.28503 52.7131 9.3545 52.6784 9.40375 52.6128C10.1708 52.5502 10.9353 52.564 11.6974 52.6546Z" fill="#201E1F"/>
<path fill-rule="evenodd" clip-rule="evenodd" d="M31.6725 52.947C31.4362 52.947 31.1999 52.947 30.9636 52.947C30.9636 53.0444 30.9636 53.1421 30.9636 53.2394C30.923 53.1371 30.9091 53.026 30.9218 52.9053C31.18 52.8919 31.4302 52.9057 31.6725 52.947Z" fill="#878586"/>
<path fill-rule="evenodd" clip-rule="evenodd" d="M9.40376 52.6129C9.35451 52.6784 9.28504 52.7131 9.19525 52.7173C8.42648 52.7762 7.68281 52.9086 6.96421 53.1141C6.90766 53.0774 6.84511 53.0636 6.77655 53.0724C7.62768 52.8071 8.50342 52.6542 9.40376 52.6129Z" fill="#403E3F"/>
<path fill-rule="evenodd" clip-rule="evenodd" d="M30.9636 53.2394C30.9636 53.1421 30.9636 53.0443 30.9636 52.947C31.1999 52.947 31.4362 52.947 31.6725 52.947C33.0172 52.9412 34.3586 52.9412 35.6967 52.947C37.8024 56.156 39.957 59.3307 42.1605 62.4712C42.9945 63.7244 43.8286 64.9776 44.6626 66.2308C44.5829 61.8008 44.4507 57.3728 44.2664 52.947C45.4758 52.947 46.6851 52.947 47.8945 52.947C47.8761 58.7835 47.9737 64.6175 48.1864 70.4498C46.6297 70.4569 45.0725 70.4498 43.5158 70.4289C43.0729 69.7572 42.6351 69.0818 42.2022 68.4029C39.5795 64.7729 37.0218 61.0969 34.5291 57.3749C34.5691 61.7356 34.6872 66.0937 34.8835 70.4498C33.6742 70.4498 32.4648 70.4498 31.2555 70.4498C31.3388 64.7102 31.2415 58.9732 30.9636 53.2394Z" fill="#201E1F"/>
<path fill-rule="evenodd" clip-rule="evenodd" d="M66.8688 63.7244C66.8225 63.7574 66.767 63.7783 66.702 63.7871C66.4801 63.808 66.2574 63.8151 66.0347 63.808C65.8025 63.803 65.5802 63.8305 65.3675 63.8915C65.1348 63.8811 64.9121 63.9091 64.7003 63.9751C64.202 64.0101 63.7015 64.0657 63.199 64.1421C62.1903 61.2707 61.0714 58.4439 59.842 55.6623C58.5038 58.6883 57.2599 61.7515 56.1097 64.8523C56.0509 64.8719 56.0234 64.9137 56.0263 64.9776C55.9525 65.2278 55.8553 65.4643 55.7344 65.6877C55.6222 65.8151 55.5668 65.968 55.5676 66.1472C55.5676 66.1752 55.5676 66.2028 55.5676 66.2308C55.0046 67.6156 54.4483 69.0083 53.8995 70.4081C52.4679 70.4636 51.0359 70.4636 49.6042 70.4081C50.2898 68.9928 50.9641 67.5725 51.6268 66.1472C53.0471 62.9813 54.4788 59.8208 55.9221 56.6648C56.4554 55.4446 56.9767 54.2194 57.4859 52.9888C59.0943 52.9333 60.6998 52.9333 62.3024 52.9888C63.7637 56.5938 65.2858 60.1725 66.8688 63.7244Z" fill="#201E1F"/>
<path fill-rule="evenodd" clip-rule="evenodd" d="M29.2955 52.9053C29.2955 58.8788 29.2955 64.8523 29.2955 70.8258C28.0861 70.8258 26.8768 70.8258 25.6674 70.8258C25.6813 65.9939 25.6674 61.1621 25.6257 56.3306C25.6004 56.3356 25.5865 56.3498 25.584 56.3724C25.5304 56.4818 25.4609 56.5792 25.3755 56.6648C25.3931 56.4346 25.4974 56.2538 25.6883 56.1218C25.7091 61.0092 25.7161 65.8966 25.7091 70.784C26.8768 70.784 28.0444 70.784 29.2121 70.784C29.2121 64.8523 29.2121 58.9205 29.2121 52.9888C27.2226 52.9892 25.2417 52.9892 23.2696 52.9888C23.2107 53.0803 23.1343 53.1496 23.0402 53.1977C23.0853 53.1033 23.1409 53.0126 23.207 52.9261C25.2365 52.9053 27.2659 52.8982 29.2955 52.9053Z" fill="#363435"/>
<path fill-rule="evenodd" clip-rule="evenodd" d="M86.0516 52.9888C85.5537 53.1333 85.0395 53.2515 84.5086 53.3438C84.3564 53.3647 84.2034 53.3718 84.0499 53.3647C84.7063 53.2081 85.3735 53.0828 86.0516 52.9888Z" fill="#E3F9E2"/>
<path fill-rule="evenodd" clip-rule="evenodd" d="M83.5912 53.4483C83.5929 53.5465 83.5445 53.602 83.4452 53.6154C83.2046 53.5987 82.9611 53.5987 82.7155 53.6154C83.0028 53.5598 83.2947 53.5039 83.5912 53.4483Z" fill="#192E15"/>
<path fill-rule="evenodd" clip-rule="evenodd" d="M6.73484 53.0723C6.78063 53.1099 6.78063 53.1446 6.73484 53.1768C6.35402 53.2854 5.9787 53.4107 5.60889 53.5527C5.65493 53.5999 5.64104 53.6346 5.56719 53.6571C5.4953 53.6087 5.42582 53.6158 5.35868 53.678C5.31139 53.7206 5.32528 53.7482 5.40038 53.7616C5.35259 53.7883 5.31089 53.8234 5.27528 53.866C5.11969 53.7536 4.97373 53.7678 4.83741 53.9078C4.80943 53.8765 4.77469 53.8623 4.73315 53.866C5.3646 53.5205 6.03183 53.2557 6.73484 53.0723Z" fill="#353334"/>
<path fill-rule="evenodd" clip-rule="evenodd" d="M82.7154 53.6154C82.6958 53.6651 82.6541 53.6931 82.5903 53.6989C82.411 53.7323 82.2305 53.7461 82.0482 53.7407C82.2563 53.6488 82.4786 53.607 82.7154 53.6154Z" fill="#0E540D"/>
<path fill-rule="evenodd" clip-rule="evenodd" d="M23.0402 53.1976C23.0468 53.2549 23.0398 53.3108 23.0194 53.3647C22.6717 53.8522 22.3242 54.3393 21.9768 54.8268C21.9214 54.8719 21.8588 54.8999 21.7892 54.9103C22.1965 54.3305 22.6135 53.7595 23.0402 53.1976Z" fill="#3B3A3A"/>
<path fill-rule="evenodd" clip-rule="evenodd" d="M82.0482 53.8242C81.8368 53.8973 81.6141 53.9391 81.381 53.9495C81.5924 53.8764 81.8151 53.8347 82.0482 53.8242Z" fill="#182510"/>
<path fill-rule="evenodd" clip-rule="evenodd" d="M82.0482 53.7825C82.0482 53.7963 82.0482 53.8105 82.0482 53.8242C81.8151 53.8347 81.5924 53.8765 81.381 53.9496C81.2413 53.9425 81.1024 53.9496 80.964 53.9704C80.8089 53.9984 80.67 54.0473 80.547 54.1167C80.4773 54.1167 80.4081 54.1167 80.3385 54.1167C80.3247 54.1167 80.3105 54.1167 80.2968 54.1167C80.2997 54.0369 80.3414 53.988 80.4219 53.9704C80.9623 53.894 81.5044 53.8313 82.0482 53.7825Z" fill="#0D620E"/>
<path fill-rule="evenodd" clip-rule="evenodd" d="M81.381 53.9496C81.1191 54.0544 80.841 54.11 80.547 54.1167C80.67 54.0473 80.8089 53.9984 80.964 53.9705C81.1024 53.9496 81.2413 53.9425 81.381 53.9496Z" fill="#162B0F"/>
<path fill-rule="evenodd" clip-rule="evenodd" d="M84.0499 53.3647C85.1579 56.1134 86.3114 58.8424 87.5112 61.5522C87.2389 61.5752 86.9745 61.617 86.7188 61.6775C86.4853 61.6633 86.263 61.6909 86.0516 61.7611C85.3785 61.8037 84.7046 61.8734 84.0291 61.9699C84.0132 61.9465 83.9924 61.9328 83.9665 61.9282C83.1496 59.8174 82.3085 57.715 81.4436 55.6205C80.4456 57.8983 79.4932 60.1959 78.587 62.513C78.3872 62.4879 78.2063 62.5159 78.0449 62.5965C77.2655 62.6525 76.4869 62.7219 75.7096 62.8054C75.3664 62.8171 75.0327 62.8589 74.7087 62.9307C74.695 62.9307 74.6808 62.9307 74.667 62.9307C75.5849 60.8483 76.5232 58.7735 77.4819 56.7066C77.8184 55.9768 78.1312 55.2391 78.4202 54.4926C78.4339 54.4926 78.4481 54.4926 78.4619 54.4926C78.6942 54.5515 78.9302 54.5933 79.1708 54.6179C79.4594 54.5523 79.7513 54.5244 80.0466 54.5344C80.0466 54.4926 80.0466 54.4508 80.0466 54.4091C79.8843 54.4254 79.7313 54.3974 79.5878 54.3255C79.7555 54.2725 79.9223 54.2725 80.0883 54.3255C80.2259 54.3134 80.3093 54.2436 80.3385 54.1167C80.4081 54.1167 80.4773 54.1167 80.547 54.1167C80.841 54.11 81.1191 54.0544 81.381 53.9496C81.6141 53.9391 81.8368 53.8973 82.0482 53.8242C82.0482 53.8105 82.0482 53.7963 82.0482 53.7825C82.0482 53.7687 82.0482 53.7545 82.0482 53.7407C82.2305 53.7461 82.411 53.7323 82.5904 53.6989C82.6542 53.6931 82.6959 53.6651 82.7155 53.6154C82.9611 53.5987 83.2046 53.5987 83.4452 53.6154C83.5445 53.602 83.5929 53.5465 83.5912 53.4483C83.7467 53.4328 83.8998 53.4048 84.0499 53.3647Z" fill="#201E1F"/>
<path fill-rule="evenodd" clip-rule="evenodd" d="M79.3793 54.2838C79.1666 54.3447 78.9444 54.3723 78.7121 54.3673C78.9256 54.3126 79.1479 54.285 79.3793 54.2838Z" fill="#0F4209"/>
<path fill-rule="evenodd" clip-rule="evenodd" d="M80.2968 54.1166C80.3105 54.1166 80.3247 54.1166 80.3385 54.1166C80.3093 54.2436 80.2259 54.3134 80.0883 54.3255C79.9223 54.2725 79.7555 54.2725 79.5878 54.3255C79.7313 54.3974 79.8843 54.4253 80.0466 54.409C80.0466 54.4508 80.0466 54.4926 80.0466 54.5344C79.7513 54.5243 79.4594 54.5523 79.1708 54.6179C78.9302 54.5933 78.6942 54.5515 78.4619 54.4926C78.4619 54.4788 78.4619 54.4646 78.4619 54.4508C78.5507 54.4278 78.6341 54.4003 78.7121 54.3673C78.9444 54.3723 79.1666 54.3447 79.3793 54.2837C79.6817 54.2353 79.9873 54.1793 80.2968 54.1166Z" fill="#1B2219"/>
<path fill-rule="evenodd" clip-rule="evenodd" d="M79.1291 54.3673C79.2125 54.3673 79.2959 54.3673 79.3793 54.3673C79.3793 54.4091 79.3793 54.4509 79.3793 54.4926C79.1967 54.5064 79.0157 54.4922 78.8372 54.4509C78.9402 54.4229 79.0374 54.3953 79.1291 54.3673Z" fill="#29182A"/>
<path fill-rule="evenodd" clip-rule="evenodd" d="M4.73316 53.866C4.74584 53.8932 4.75973 53.9212 4.77487 53.9496C4.19042 54.2353 3.65525 54.5971 3.16935 55.0357C3.14137 55.0043 3.10662 54.9901 3.06509 54.9939C3.56454 54.5348 4.12056 54.1589 4.73316 53.866Z" fill="#393838"/>
<path fill-rule="evenodd" clip-rule="evenodd" d="M78.4619 54.4508C78.4619 54.4646 78.4619 54.4788 78.4619 54.4926C78.4481 54.4926 78.4339 54.4926 78.4202 54.4926C78.3676 54.4909 78.3259 54.5118 78.2951 54.5553C77.3155 54.6192 76.3426 54.6263 75.3759 54.5761C76.3705 54.6158 77.3576 54.5599 78.3368 54.4091C78.3881 54.4099 78.4298 54.4237 78.4619 54.4508Z" fill="#E0F1D9"/>
<path fill-rule="evenodd" clip-rule="evenodd" d="M3.06507 54.9939C2.98037 55.1372 2.89002 55.2763 2.79401 55.4116C2.78011 55.3978 2.76621 55.3836 2.75231 55.3699C2.4829 55.6493 2.21879 55.9279 1.95997 56.2053C1.70976 56.6093 1.45955 57.0128 1.20934 57.4167C1.19339 57.3933 1.17254 57.3795 1.14679 57.3749C1.63184 56.4572 2.27126 55.6635 3.06507 54.9939Z" fill="#3B393A"/>
<path fill-rule="evenodd" clip-rule="evenodd" d="M11.6973 52.6546C12.8003 52.7135 13.8915 52.8526 14.9709 53.0723C15.0075 54.0895 15.0561 55.1062 15.1169 56.1217C14.4075 55.9684 13.6986 55.8084 12.9901 55.6414C11.4928 55.3569 10.0055 55.3916 8.52802 55.7458C8.58423 55.6631 8.66763 55.6142 8.77823 55.5996C9.61385 55.3957 10.4618 55.3122 11.322 55.3489C12.5846 55.4438 13.8217 55.6735 15.0335 56.0382C14.9727 55.0507 14.931 54.0619 14.9084 53.0723C14.8168 53.0761 14.7264 53.0899 14.6373 53.1141C13.6943 52.9219 12.7421 52.7899 11.7808 52.7173C11.7426 52.7056 11.7148 52.6847 11.6973 52.6546Z" fill="#3C3B3C"/>
<path fill-rule="evenodd" clip-rule="evenodd" d="M8.48631 55.7458C7.30756 56.1272 6.30672 56.7818 5.48378 57.7091C5.47915 57.6832 5.46526 57.6623 5.44208 57.6465C5.66272 57.3829 5.91293 57.1185 6.19271 56.8528C6.37132 56.7433 6.53813 56.618 6.69313 56.4768C6.77203 56.4363 6.85543 56.4083 6.94334 56.3933C7.37687 56.0462 7.87037 55.8164 8.42375 55.704C8.45566 55.707 8.47651 55.7207 8.48631 55.7458Z" fill="#3A3839"/>
<path fill-rule="evenodd" clip-rule="evenodd" d="M21.7892 54.9521C21.8118 54.9546 21.8257 54.9684 21.8309 54.9939C21.5081 55.4513 21.1675 55.9246 20.8092 56.4141C20.7621 56.4826 20.6995 56.5244 20.6215 56.5395C20.996 55.9977 21.3852 55.4684 21.7892 54.9521Z" fill="#3C3B3B"/>
<path fill-rule="evenodd" clip-rule="evenodd" d="M25.584 56.3724C25.5865 56.3498 25.6004 56.3356 25.6257 56.3306C25.6674 61.1621 25.6813 65.9939 25.6674 70.8258C25.6536 70.8258 25.6396 70.8258 25.6257 70.8258C25.6396 66.001 25.6257 61.1834 25.584 56.3724Z" fill="#454344"/>
<path fill-rule="evenodd" clip-rule="evenodd" d="M20.6215 56.5395C20.6262 56.5654 20.64 56.5863 20.6632 56.6021C20.1507 57.3574 19.6224 58.1022 19.0786 58.837C19.0442 58.8742 19.0025 58.888 18.9535 58.8788C19.4936 58.0872 20.0496 57.3073 20.6215 56.5395Z" fill="#393839"/>
<path fill-rule="evenodd" clip-rule="evenodd" d="M25.3755 56.6648C25.015 57.1928 24.6397 57.7079 24.2496 58.2104C24.243 58.1532 24.25 58.0972 24.2704 58.0433C24.6035 57.5571 24.951 57.0834 25.313 56.623C25.3289 56.6464 25.3498 56.6602 25.3755 56.6648Z" fill="#3C3B3C"/>
<path fill-rule="evenodd" clip-rule="evenodd" d="M23.624 59.0876C23.0689 59.8663 22.4989 60.632 21.9143 61.3852C21.9077 61.3279 21.9147 61.2719 21.9351 61.2181C22.3886 60.614 22.8335 60.0012 23.2696 59.3801C23.3712 59.2568 23.4893 59.1595 23.624 59.0876Z" fill="#3C3B3C"/>
<path fill-rule="evenodd" clip-rule="evenodd" d="M4.52465 59.38C3.95421 60.8847 3.8708 62.4161 4.27444 63.975C4.20467 63.9399 4.156 63.8839 4.12848 63.8079C3.89603 62.6976 3.88213 61.5835 4.08678 60.4661C4.17602 60.3391 4.21076 60.2067 4.19103 60.0693C4.24579 59.9247 4.29445 59.7785 4.33699 59.6306C4.37093 59.5187 4.43349 59.4351 4.52465 59.38Z" fill="#383738"/>
<path fill-rule="evenodd" clip-rule="evenodd" d="M90.7222 63.8915C90.0045 63.9128 89.2956 63.9684 88.5954 64.0586C87.969 64.069 87.3435 64.097 86.7188 64.1421C86.3756 64.1288 86.042 64.1564 85.718 64.2257C85.4186 64.237 85.1266 64.2645 84.8422 64.3092C84.5703 64.2959 84.306 64.3097 84.0499 64.351C83.597 64.3514 83.1521 64.3794 82.7154 64.4346C82.0461 64.4488 81.3789 64.4905 80.7138 64.5599C80.3722 64.5649 80.0386 64.5925 79.7129 64.6434C79.0399 64.6852 78.3726 64.727 77.7112 64.7687C77.3701 64.7829 77.0365 64.8109 76.7104 64.8523C76.182 64.8452 75.6537 64.8523 75.1257 64.8732C74.9785 64.8807 74.8397 64.9016 74.7087 64.9358C74.4864 64.9638 74.2638 64.9914 74.0415 65.0194C73.9118 65.0094 73.7867 65.0236 73.6662 65.0612C73.2346 65.057 72.8034 65.0708 72.3734 65.1029C72.0231 65.0766 71.6895 65.1042 71.3726 65.1865C70.1228 65.2871 68.8717 65.3707 67.6194 65.4371C66.3542 65.519 65.0894 65.6025 63.8245 65.6877C61.0751 65.8966 58.3228 66.0775 55.5676 66.2308C55.5676 66.2028 55.5676 66.1752 55.5676 66.1472C55.6389 66.0031 55.6944 65.8498 55.7344 65.6877C55.8553 65.4643 55.9525 65.2278 56.0263 64.9776C56.2523 64.9488 56.4746 64.8932 56.6935 64.8105C58.8612 64.5741 61.0297 64.351 63.199 64.1421C63.7015 64.0657 64.2019 64.0101 64.7003 63.9751C64.9317 63.9738 65.154 63.9462 65.3675 63.8915C65.599 63.8903 65.8212 63.8627 66.0347 63.808C66.2574 63.8151 66.4801 63.808 66.702 63.7871C66.767 63.7783 66.8225 63.7574 66.8688 63.7244C67.2591 63.7102 67.6482 63.6826 68.0364 63.6409C68.2658 63.6221 68.4881 63.5941 68.7037 63.5573C69.0364 63.5218 69.37 63.4943 69.7045 63.4738C70.2675 63.4178 70.8234 63.3485 71.3726 63.2649C72.4797 63.1835 73.5778 63.0723 74.667 62.9307C74.6808 62.9307 74.6949 62.9307 74.7087 62.9307C75.0594 62.9303 75.393 62.8885 75.7096 62.8054C76.4869 62.7219 77.2654 62.6525 78.0449 62.5966C78.1846 62.6037 78.3234 62.5966 78.4619 62.5757C78.5136 62.5661 78.5553 62.5452 78.587 62.513C80.3389 62.3472 82.0903 62.1734 83.8414 61.9909C83.8931 61.9812 83.9348 61.9604 83.9665 61.9282C83.9924 61.9328 84.0132 61.9466 84.0291 61.97C84.7046 61.8735 85.3785 61.8037 86.0516 61.7611C86.2818 61.7494 86.5041 61.7214 86.7188 61.6776C86.9911 61.6692 87.2551 61.6416 87.5112 61.594C88.6521 61.4917 89.7918 61.3801 90.9307 61.2598C91.3452 62.0899 91.7622 62.9253 92.1818 63.7662C91.6884 63.8038 91.2022 63.8456 90.7222 63.8915Z" fill="#037703"/>
<path fill-rule="evenodd" clip-rule="evenodd" d="M87.5111 61.5522C87.5111 61.566 87.5111 61.5802 87.5111 61.594C87.2551 61.6416 86.9911 61.6692 86.7188 61.6776C86.9744 61.617 87.2388 61.5752 87.5111 61.5522Z" fill="#0F310D"/>
<path fill-rule="evenodd" clip-rule="evenodd" d="M86.7188 61.6776C86.5041 61.7214 86.2818 61.7494 86.0516 61.7611C86.263 61.6909 86.4853 61.6634 86.7188 61.6776Z" fill="#123B0E"/>
<path fill-rule="evenodd" clip-rule="evenodd" d="M76.0432 62.2206C76.7104 62.2206 77.3776 62.2206 78.0449 62.2206C78.0449 62.2624 78.0449 62.3041 78.0449 62.3459C77.5999 62.353 77.155 62.3459 76.7104 62.325C76.4702 62.33 76.2479 62.2954 76.0432 62.2206Z" fill="#231B26"/>
<path fill-rule="evenodd" clip-rule="evenodd" d="M78.587 62.513C78.5553 62.5451 78.5136 62.566 78.4619 62.5756C78.3234 62.5965 78.1846 62.6036 78.0449 62.5965C78.2062 62.5159 78.3872 62.4879 78.587 62.513Z" fill="#10470D"/>
<path fill-rule="evenodd" clip-rule="evenodd" d="M0.688088 58.4193C0.675102 58.7087 0.591698 58.9732 0.437877 59.2129C0.451776 59.2409 0.46568 59.2685 0.479579 59.2965C0.330951 59.8303 0.226696 60.3734 0.166815 60.9256C0.0271038 62.4035 0.16611 63.8514 0.583833 65.27C0.6429 65.4768 0.733251 65.6647 0.854895 65.8339C0.821325 65.8803 0.793522 65.9292 0.771491 65.9801C0.245905 64.709 -0.00430519 63.3789 0.0208592 61.9908C0.00596592 60.7498 0.228376 59.5592 0.688088 58.4193Z" fill="#393838"/>
<path fill-rule="evenodd" clip-rule="evenodd" d="M75.7096 62.8054C75.393 62.8885 75.0594 62.9303 74.7087 62.9307C75.0327 62.8589 75.3663 62.8171 75.7096 62.8054Z" fill="#0D3E0B"/>
<path fill-rule="evenodd" clip-rule="evenodd" d="M71.3726 63.2649C70.8234 63.3484 70.2675 63.4178 69.7045 63.4738C69.8267 63.292 69.9935 63.2503 70.2049 63.3484C70.5919 63.2858 70.981 63.2582 71.3726 63.2649Z" fill="#E4F5E3"/>
<path fill-rule="evenodd" clip-rule="evenodd" d="M68.7037 63.5573C68.4881 63.5941 68.2658 63.6221 68.0364 63.6409C68.2408 63.5594 68.463 63.5318 68.7037 63.5573Z" fill="#C6ECC2"/>
<path fill-rule="evenodd" clip-rule="evenodd" d="M18.2862 59.7977C18.2915 59.8875 18.2707 59.9711 18.2237 60.0484C18.0543 60.2338 17.9153 60.4427 17.8066 60.675C17.7928 60.6612 17.7788 60.647 17.7649 60.6332C17.6815 60.7723 17.5981 60.9118 17.5147 61.0509C17.3783 61.2297 17.2254 61.3968 17.056 61.5522C17.0224 61.6754 16.9668 61.7865 16.8892 61.8864C16.746 62.0038 16.6557 62.1362 16.6181 62.2832C16.3561 62.5668 16.1336 62.8801 15.9509 63.2231C15.9701 63.3392 15.984 63.4574 15.9926 63.5782C15.9086 63.7181 15.7835 63.7874 15.6173 63.787C15.5885 63.8317 15.5676 63.8802 15.5547 63.9332C15.5409 63.8915 15.5269 63.8497 15.513 63.8079C15.2568 64.1622 15.0066 64.4963 14.7624 64.8105C14.7464 64.7871 14.7256 64.7733 14.6999 64.7687C15.8856 63.1028 17.0811 61.4457 18.2862 59.7977Z" fill="#312F30"/>
<path fill-rule="evenodd" clip-rule="evenodd" d="M21.9143 61.3851C21.2929 62.3 20.6395 63.191 19.9543 64.0586C20.001 63.8928 20.0775 63.7394 20.1836 63.5991C20.7127 62.9157 21.2271 62.2193 21.7266 61.5105C21.7737 61.4419 21.8362 61.4002 21.9143 61.3851Z" fill="#3D3C3D"/>
<path fill-rule="evenodd" clip-rule="evenodd" d="M66.0348 63.808C65.8212 63.8627 65.599 63.8902 65.3675 63.8915C65.5802 63.8305 65.8025 63.8029 66.0348 63.808Z" fill="#102E0C"/>
<path fill-rule="evenodd" clip-rule="evenodd" d="M65.3675 63.8915C65.154 63.9462 64.9317 63.9738 64.7003 63.975C64.9121 63.909 65.1348 63.881 65.3675 63.8915Z" fill="#0A380D"/>
<path fill-rule="evenodd" clip-rule="evenodd" d="M90.7222 63.8915C90.6288 63.9462 90.5174 63.9742 90.3886 63.975C89.7918 64.0218 89.1938 64.0498 88.5954 64.0586C89.2956 63.9683 90.0045 63.9128 90.7222 63.8915Z" fill="#E3F5DC"/>
<path fill-rule="evenodd" clip-rule="evenodd" d="M88.5954 64.0586C89.532 66.179 90.4637 68.3027 91.3894 70.4289C89.9991 70.4636 88.6092 70.4569 87.2193 70.4081C86.4499 68.3654 85.6575 66.3323 84.8423 64.3092C85.1267 64.2645 85.4186 64.237 85.718 64.2257C86.0683 64.252 86.4019 64.2244 86.7188 64.1421C87.3435 64.097 87.9691 64.069 88.5954 64.0586Z" fill="#201E1F"/>
<path fill-rule="evenodd" clip-rule="evenodd" d="M86.7188 64.1421C86.4019 64.2244 86.0683 64.252 85.718 64.2257C86.042 64.1563 86.3756 64.1288 86.7188 64.1421Z" fill="#0B3F15"/>
<path fill-rule="evenodd" clip-rule="evenodd" d="M84.0499 64.351C83.6145 64.425 83.1696 64.4529 82.7155 64.4346C83.1521 64.3794 83.597 64.3514 84.0499 64.351Z" fill="#D9F4DB"/>
<path fill-rule="evenodd" clip-rule="evenodd" d="M80.7138 64.5599C80.3968 64.6422 80.0632 64.6697 79.7129 64.6434C80.0386 64.5925 80.3722 64.5649 80.7138 64.5599Z" fill="#DBF5D7"/>
<path fill-rule="evenodd" clip-rule="evenodd" d="M77.7112 64.7687C76.951 66.6535 76.2146 68.5471 75.501 70.4498C74.0552 70.4569 72.6099 70.4498 71.1641 70.429C71.9906 68.7317 72.7967 67.0261 73.5828 65.3118C73.6086 65.3164 73.6295 65.3302 73.6453 65.3536C74.2212 65.3005 74.798 65.2449 75.3759 65.1865C75.8201 65.1447 76.2646 65.1309 76.7104 65.1447C76.7104 65.1029 76.7104 65.0611 76.7104 65.0194C76.2087 65.0265 75.7083 65.0545 75.2091 65.1029C75.0953 65.0954 74.9844 65.0745 74.8755 65.0403C75.0615 65.0444 75.2283 65.0098 75.3759 64.9358C75.8209 64.9078 76.2654 64.8803 76.7104 64.8523C77.0365 64.8109 77.3701 64.7829 77.7112 64.7687Z" fill="#201E1F"/>
<path fill-rule="evenodd" clip-rule="evenodd" d="M56.6936 64.8105C56.4746 64.8932 56.2524 64.9488 56.0263 64.9776C56.0234 64.9137 56.0509 64.8719 56.1097 64.8523C56.3036 64.8314 56.4984 64.8176 56.6936 64.8105Z" fill="#377A2F"/>
<path fill-rule="evenodd" clip-rule="evenodd" d="M76.7104 64.8523C76.2654 64.8803 75.8209 64.9078 75.3759 64.9358C75.1537 64.9358 74.931 64.9358 74.7087 64.9358C74.8397 64.9016 74.9785 64.8807 75.1257 64.8732C75.6537 64.8523 76.182 64.8452 76.7104 64.8523Z" fill="#115710"/>
<path fill-rule="evenodd" clip-rule="evenodd" d="M14.6999 64.7687C14.6752 64.902 14.6265 65.0273 14.5539 65.1447C14.3406 65.448 14.1182 65.7404 13.8867 66.0219C13.867 66.095 13.8392 66.1644 13.8033 66.2308C13.703 66.3102 13.6265 66.4079 13.5739 66.5232C13.5243 66.562 13.4687 66.5758 13.4071 66.565C13.8232 65.9534 14.2541 65.3548 14.6999 64.7687Z" fill="#3A393A"/>
<path fill-rule="evenodd" clip-rule="evenodd" d="M72.3734 65.1029C72.0477 65.1501 71.7141 65.1781 71.3726 65.1864C71.6895 65.1041 72.0231 65.0766 72.3734 65.1029Z" fill="#44883D"/>
<path fill-rule="evenodd" clip-rule="evenodd" d="M74.0415 65.0194C74.2638 65.0194 74.4864 65.0194 74.7087 65.0194C74.7087 65.0611 74.7087 65.1029 74.7087 65.1447C74.3534 65.1614 74.006 65.1614 73.6662 65.1447C73.6662 65.1167 73.6662 65.0891 73.6662 65.0611C73.7867 65.0235 73.9118 65.0093 74.0415 65.0194Z" fill="#241D23"/>
<path fill-rule="evenodd" clip-rule="evenodd" d="M74.7087 64.9358C74.931 64.9358 75.1537 64.9358 75.3759 64.9358C75.2283 65.0097 75.0615 65.0444 74.8755 65.0402C74.9844 65.0745 75.0953 65.0954 75.2091 65.1029C75.7083 65.0544 76.2087 65.0264 76.7104 65.0193C76.7104 65.0611 76.7104 65.1029 76.7104 65.1447C76.2646 65.1309 75.8201 65.1447 75.3759 65.1864C74.798 65.2449 74.2212 65.3005 73.6453 65.3535C73.6295 65.3301 73.6086 65.3163 73.5828 65.3117C73.6032 65.2491 73.6311 65.1935 73.6662 65.1447C74.006 65.1614 74.3534 65.1614 74.7087 65.1447C74.7087 65.1029 74.7087 65.0611 74.7087 65.0193C74.4864 65.0193 74.2638 65.0193 74.0415 65.0193C74.2638 64.9913 74.4864 64.9638 74.7087 64.9358Z" fill="#1D2318"/>
<path fill-rule="evenodd" clip-rule="evenodd" d="M4.56633 64.8523C4.83485 65.4317 5.19628 65.9472 5.65058 66.3979C5.51851 66.3699 5.41425 66.3006 5.33781 66.189C5.18664 65.986 5.02676 65.7913 4.85824 65.6042C4.74565 65.3945 4.63443 65.1856 4.52463 64.9776C4.55077 64.9392 4.5647 64.8974 4.56633 64.8523Z" fill="#3B3A3A"/>
<path fill-rule="evenodd" clip-rule="evenodd" d="M19.9543 64.0586C19.5298 64.6864 19.0849 65.2992 18.6198 65.8966C18.6152 65.8707 18.6013 65.8498 18.5781 65.8339C18.6672 65.6885 18.7575 65.5423 18.8492 65.3953C19.2266 64.96 19.5741 64.5005 19.8917 64.0168C19.9077 64.0402 19.9286 64.054 19.9543 64.0586Z" fill="#3B3A3B"/>
<path fill-rule="evenodd" clip-rule="evenodd" d="M67.6194 65.4371C68.3529 67.0879 69.0761 68.7451 69.7879 70.408C68.4117 70.4636 67.0356 70.4636 65.6594 70.408C65.0639 68.8265 64.4522 67.2529 63.8246 65.6877C65.0894 65.6025 66.3542 65.5189 67.6194 65.4371Z" fill="#201E1F"/>
<path fill-rule="evenodd" clip-rule="evenodd" d="M55.7344 65.6877C55.6944 65.8498 55.6389 66.0031 55.5676 66.1472C55.5668 65.968 55.6222 65.8152 55.7344 65.6877Z" fill="#0E2C12"/>
<path fill-rule="evenodd" clip-rule="evenodd" d="M18.6199 65.8966C18.2733 66.4104 17.9118 66.9117 17.5356 67.4004C17.5021 67.362 17.4952 67.3202 17.5148 67.2751C17.8321 66.9196 18.1101 66.5299 18.3488 66.1055C18.3801 66.0792 18.4148 66.0583 18.453 66.0428C18.4392 66.029 18.4252 66.0148 18.4113 66.001C18.4771 65.9555 18.5467 65.9204 18.6199 65.8966Z" fill="#3D3C3C"/>
<path fill-rule="evenodd" clip-rule="evenodd" d="M5.65059 66.3979C7.19764 67.6774 8.97693 68.1858 10.9884 67.9226C11.4472 67.8721 11.9059 67.8232 12.3646 67.7764C12.2507 67.8729 12.1187 67.9426 11.9684 67.9853C11.9171 67.9598 11.8615 67.946 11.8016 67.9435C10.8222 68.0914 9.84224 68.0985 8.86162 67.9644C7.61537 67.7994 6.53112 67.2981 5.60889 66.4605C5.63207 66.4447 5.64596 66.4238 5.65059 66.3979Z" fill="#3B3A3B"/>
<path fill-rule="evenodd" clip-rule="evenodd" d="M1.85574 67.7346C1.93031 67.7225 1.99981 67.7367 2.06425 67.7764C2.22669 67.9581 2.3935 68.1598 2.56467 68.3821C2.78708 68.5492 3.00949 68.7163 3.2319 68.8834C3.59718 69.124 3.9725 69.347 4.35785 69.5517C4.43596 69.5914 4.44984 69.6403 4.39955 69.6979C3.4221 69.215 2.57417 68.5604 1.85574 67.7346Z" fill="#3B3A3B"/>
<path fill-rule="evenodd" clip-rule="evenodd" d="M17.4522 67.4839C16.6907 68.5942 15.8984 69.6803 15.0752 70.7422C15.0788 70.7004 15.0648 70.6658 15.0335 70.6378C15.4619 70.1344 15.8442 69.5985 16.1803 69.0295C16.5994 68.5383 16.9886 68.0232 17.3479 67.4839C17.38 67.438 17.4148 67.438 17.4522 67.4839Z" fill="#3C3B3C"/>
<path fill-rule="evenodd" clip-rule="evenodd" d="M15.0752 70.7422C15.0706 70.7681 15.0567 70.789 15.0335 70.8049C12.9067 70.8329 10.7799 70.8329 8.65311 70.8049C7.41974 70.7335 6.23816 70.4619 5.10846 69.9903C5.13557 69.9778 5.16338 69.9636 5.19186 69.9485C6.41431 70.4064 7.67929 70.6641 8.98672 70.7213C11.0162 70.7422 13.0456 70.7493 15.0752 70.7422Z" fill="#403E3F"/>
<path fill-rule="evenodd" clip-rule="evenodd" d="M29.2955 52.9053C29.3372 58.8859 29.3511 64.8732 29.3372 70.8676C28.0929 70.8814 26.8557 70.8676 25.6257 70.8258C25.6396 70.8258 25.6535 70.8258 25.6674 70.8258C26.8768 70.8258 28.0861 70.8258 29.2955 70.8258C29.2955 64.8523 29.2955 58.8788 29.2955 52.9053Z" fill="#959495"/>
<path fill-rule="evenodd" clip-rule="evenodd" d="M60.4467 76.0892C61.4263 76.0474 62.4134 76.0336 63.4075 76.0474C63.4209 76.2642 63.4071 76.4731 63.3658 76.674C63.3658 76.4789 63.3658 76.2843 63.3658 76.0892C62.3929 76.0892 61.4196 76.0892 60.4467 76.0892Z" fill="#989898"/>
<path fill-rule="evenodd" clip-rule="evenodd" d="M78.2951 76.0892C77.0303 76.0892 75.765 76.0892 74.5002 76.0892C74.5002 76.2843 74.5002 76.4789 74.5002 76.674C74.5002 76.6878 74.5002 76.702 74.5002 76.7158C74.4589 76.5011 74.4452 76.2784 74.4585 76.0474C75.7446 76.0336 77.0232 76.0474 78.2951 76.0892Z" fill="#959595"/>
<path fill-rule="evenodd" clip-rule="evenodd" d="M4.19104 79.1385C3.85742 79.1385 3.52381 79.1385 3.19019 79.1385C3.19019 79.9878 3.19019 80.8374 3.19019 81.6867C2.98168 81.6867 2.77318 81.6867 2.56467 81.6867C2.56467 79.8207 2.56467 77.9551 2.56467 76.0891C3.28894 76.0733 4.01177 76.0941 4.73316 76.1518C5.39555 76.4049 5.72916 76.8924 5.734 77.6138C5.69305 78.6089 5.1787 79.1168 4.19104 79.1385Z" fill="#201E1F"/>
<path fill-rule="evenodd" clip-rule="evenodd" d="M32.7984 76.0891C32.5899 76.0891 32.3814 76.0891 32.1729 76.0891C32.1729 77.9551 32.1729 79.8207 32.1729 81.6867C32.1313 79.814 32.1174 77.9342 32.1312 76.0473C32.3617 76.034 32.5841 76.0478 32.7984 76.0891Z" fill="#6F6D6E"/>
<path fill-rule="evenodd" clip-rule="evenodd" d="M32.7984 76.0892C32.7984 77.7463 32.7984 79.403 32.7984 81.0601C33.5074 81.0601 34.2163 81.0601 34.9252 81.0601C34.9252 81.269 34.9252 81.4779 34.9252 81.6867C34.0078 81.6867 33.0904 81.6867 32.1729 81.6867C32.1729 79.8207 32.1729 77.9552 32.1729 76.0892C32.3814 76.0892 32.5899 76.0892 32.7984 76.0892Z" fill="#1F1E1F"/>
<path fill-rule="evenodd" clip-rule="evenodd" d="M46.9354 76.0891C46.7268 76.0891 46.5183 76.0891 46.3098 76.0891C46.3098 77.9551 46.3098 79.8207 46.3098 81.6867C46.2681 79.814 46.2544 77.9342 46.2681 76.0473C46.4987 76.034 46.721 76.0478 46.9354 76.0891Z" fill="#868585"/>
<path fill-rule="evenodd" clip-rule="evenodd" d="M46.9353 76.0892C46.9353 77.7463 46.9353 79.403 46.9353 81.0601C47.6443 81.0601 48.3532 81.0601 49.0621 81.0601C49.0621 81.269 49.0621 81.4779 49.0621 81.6867C48.1447 81.6867 47.2273 81.6867 46.3098 81.6867C46.3098 79.8207 46.3098 77.9552 46.3098 76.0892C46.5183 76.0892 46.7268 76.0892 46.9353 76.0892Z" fill="#201E1F"/>
<path fill-rule="evenodd" clip-rule="evenodd" d="M60.4467 76.0892C61.4196 76.0892 62.3929 76.0892 63.3658 76.0892C63.3658 76.2843 63.3658 76.4789 63.3658 76.674C62.6152 76.674 61.8646 76.674 61.1139 76.674C61.0722 77.2095 61.0585 77.7526 61.0722 78.3031C61.8366 78.3031 62.6014 78.3031 63.3658 78.3031C63.3658 78.4982 63.3658 78.6929 63.3658 78.8879C62.6223 78.9297 61.8717 78.9435 61.1139 78.9297C61.1139 79.6399 61.1139 80.35 61.1139 81.0601C61.8575 81.1019 62.6081 81.1157 63.3658 81.1019C63.3658 81.297 63.3658 81.4916 63.3658 81.6867C62.3929 81.6867 61.4196 81.6867 60.4467 81.6867C60.4467 79.8207 60.4467 77.9552 60.4467 76.0892Z" fill="#212020"/>
<path fill-rule="evenodd" clip-rule="evenodd" d="M78.2951 76.0892C78.2951 76.298 78.2951 76.5069 78.2951 76.7158C77.7809 76.7158 77.2663 76.7158 76.7521 76.7158C76.7521 78.3729 76.7521 80.0296 76.7521 81.6867C76.5298 81.6867 76.3072 81.6867 76.0849 81.6867C76.0849 80.0158 76.0849 78.3449 76.0849 76.674C75.5565 76.674 75.0286 76.674 74.5002 76.674C74.5002 76.4789 74.5002 76.2843 74.5002 76.0892C75.765 76.0892 77.0303 76.0892 78.2951 76.0892Z" fill="#232122"/>
<path fill-rule="evenodd" clip-rule="evenodd" d="M3.9825 76.7158C4.872 76.7696 5.18477 77.2291 4.92079 78.0943C4.82968 78.2764 4.68372 78.3946 4.48293 78.4493C4.07053 78.535 3.65351 78.5696 3.23187 78.5538C3.23187 77.941 3.23187 77.3286 3.23187 76.7158C3.48208 76.7158 3.73229 76.7158 3.9825 76.7158Z" fill="#FDFCFC"/>
<path fill-rule="evenodd" clip-rule="evenodd" d="M3.98251 76.7158C3.7323 76.7158 3.48209 76.7158 3.23188 76.7158C3.23188 77.3286 3.23188 77.941 3.23188 78.5538C3.19034 77.9347 3.17644 77.3081 3.19018 76.674C3.46216 76.6606 3.72627 76.6744 3.98251 76.7158Z" fill="#9A9899"/>
<path fill-rule="evenodd" clip-rule="evenodd" d="M74.5002 76.7157C74.5002 76.7019 74.5002 76.6877 74.5002 76.674C75.0286 76.674 75.5565 76.674 76.0849 76.674C76.0849 78.3449 76.0849 80.0158 76.0849 81.6867C76.0432 80.0367 76.0294 78.38 76.0432 76.7157C75.529 76.7157 75.0144 76.7157 74.5002 76.7157Z" fill="#737172"/>
<path fill-rule="evenodd" clip-rule="evenodd" d="M90.7222 75.922C91.3686 75.8569 91.9036 76.0657 92.3277 76.5486C92.3623 76.6184 92.3974 76.6877 92.432 76.7575C92.2818 76.9024 92.115 77.0277 91.9315 77.1334C91.6463 76.6226 91.2155 76.4208 90.6388 76.5277C90.213 76.7211 90.0395 77.0482 90.1175 77.5094C90.1859 77.6961 90.2902 77.8561 90.4303 77.9898C91.0258 78.26 91.6096 78.5525 92.1818 78.867C92.8444 79.5262 92.9487 80.271 92.4945 81.1018C92.2243 81.4845 91.8561 81.7142 91.3894 81.7911C90.3227 81.9799 89.6138 81.5689 89.2626 80.5588C89.4328 80.4109 89.6275 80.3203 89.8465 80.2873C90.1801 81.2656 90.8056 81.5162 91.723 81.0392C92.1426 80.6068 92.2051 80.1265 91.9107 79.598C91.791 79.4644 91.6588 79.3457 91.5145 79.243C90.9824 79.0249 90.4678 78.7743 89.9716 78.4911C89.3894 77.9196 89.2852 77.2721 89.6588 76.5486C89.9495 76.2211 90.3039 76.0123 90.7222 75.922Z" fill="#212021"/>
<path fill-rule="evenodd" clip-rule="evenodd" d="M61.1139 76.674C61.1139 77.2032 61.1139 77.7321 61.1139 78.2613C61.8783 78.2613 62.6431 78.2613 63.4075 78.2613C63.4209 78.4781 63.4071 78.687 63.3658 78.8879C63.3658 78.6928 63.3658 78.4982 63.3658 78.3031C62.6014 78.3031 61.8366 78.3031 61.0722 78.3031C61.0585 77.7525 61.0722 77.2095 61.1139 76.674Z" fill="#B1AFB0"/>
<path fill-rule="evenodd" clip-rule="evenodd" d="M18.4113 75.8803C18.4925 75.9576 18.555 76.0553 18.599 76.1727C19.3903 78.0078 20.1896 79.8391 20.9968 81.6658C20.747 81.6867 20.4968 81.6938 20.2462 81.6867C20.0477 81.1215 19.8253 80.5647 19.579 80.0158C18.8283 79.9603 18.0777 79.9603 17.3271 80.0158C17.0808 80.5647 16.8583 81.1215 16.6598 81.6867C16.4093 81.6938 16.159 81.6867 15.9092 81.6658C16.7606 79.7443 17.5946 77.8161 18.4113 75.8803Z" fill="#222021"/>
<path fill-rule="evenodd" clip-rule="evenodd" d="M18.4113 77.3841C18.4879 77.41 18.5365 77.466 18.5573 77.5512C18.8145 78.1498 19.0716 78.7488 19.3288 79.3474C18.745 79.403 18.1611 79.403 17.5773 79.3474C17.8673 78.697 18.1453 78.0424 18.4113 77.3841Z" fill="#FAFAFA"/>
<path fill-rule="evenodd" clip-rule="evenodd" d="M98.9792 80.2246C98.9792 80.3779 98.9792 80.5308 98.9792 80.6841C98.8474 81.3107 98.4721 81.7214 97.8532 81.9164C96.9783 82.0422 96.4016 81.6871 96.1226 80.8512C95.9992 79.9489 96.3678 79.357 97.2277 79.0759C98.1113 79.0099 98.6952 79.3925 98.9792 80.2246Z" fill="#242323"/>
<path fill-rule="evenodd" clip-rule="evenodd" d="M4.19103 79.1385C3.87902 79.1799 3.55931 79.1941 3.23189 79.1803C3.24567 80.0229 3.23177 80.8583 3.19019 81.6867C3.19019 80.8374 3.19019 79.9878 3.19019 79.1385C3.5238 79.1385 3.85741 79.1385 4.19103 79.1385Z" fill="#8B898A"/>
<path fill-rule="evenodd" clip-rule="evenodd" d="M97.3111 79.3056C98.0238 79.2689 98.4896 79.5893 98.7081 80.2664C98.7277 81.2773 98.2343 81.7435 97.2277 81.6658C96.4032 81.3162 96.1601 80.7242 96.4979 79.8905C96.7068 79.6039 96.9779 79.4088 97.3111 79.3056Z" fill="#F8F8F8"/>
<path fill-rule="evenodd" clip-rule="evenodd" d="M96.9358 79.7234C96.9358 80.2384 96.9358 80.7539 96.9358 81.269C97.0329 81.269 97.1305 81.269 97.2277 81.269C97.1255 81.3095 97.0146 81.3237 96.8941 81.3108C96.8803 80.7744 96.8941 80.2451 96.9358 79.7234Z" fill="#696768"/>
<path fill-rule="evenodd" clip-rule="evenodd" d="M96.9358 79.7234C97.2139 79.7163 97.4921 79.7234 97.7698 79.7443C98.1022 79.7898 98.2339 79.9778 98.166 80.3082C98.0859 80.4577 97.9679 80.5622 97.8115 80.6215C98.0004 80.7986 98.153 81.0004 98.2702 81.2272C98.168 81.2677 98.0571 81.2819 97.9366 81.269C97.7998 81.0588 97.6468 80.8567 97.4779 80.6633C97.3957 80.6424 97.3123 80.6357 97.2277 80.6424C97.2277 80.8512 97.2277 81.0601 97.2277 81.269C97.1305 81.269 97.0329 81.269 96.9358 81.269C96.9358 80.7539 96.9358 80.2384 96.9358 79.7234Z" fill="#212020"/>
<path fill-rule="evenodd" clip-rule="evenodd" d="M97.2277 79.974C97.3949 79.9669 97.5617 79.974 97.7281 79.9949C97.8774 80.1006 97.8916 80.2259 97.7698 80.3708C97.5896 80.3917 97.4091 80.3988 97.2277 80.3917C97.2277 80.2526 97.2277 80.1131 97.2277 79.974Z" fill="#F0EEEF"/>
<path fill-rule="evenodd" clip-rule="evenodd" d="M61.114 81.0601C61.8783 81.0601 62.6432 81.0601 63.4075 81.0601C63.4209 81.2769 63.4071 81.4858 63.3658 81.6867C63.3658 81.4916 63.3658 81.297 63.3658 81.1019C62.6081 81.1157 61.8575 81.1019 61.114 81.0601Z" fill="#585657"/>
<path fill-rule="evenodd" clip-rule="evenodd" d="M98.2702 81.2272C98.2927 81.2297 98.3069 81.2435 98.3119 81.2689C98.181 81.3233 98.0559 81.3233 97.9366 81.2689C98.0571 81.2819 98.1681 81.2677 98.2702 81.2272Z" fill="#868585"/>
</g>
<defs>
<clipPath id="clip0_2_555">
<rect width="99" height="82" fill="white"/>
</clipPath>
</defs>
</svg>
