<svg width="466" height="155" viewBox="0 0 466 155" fill="none" xmlns="http://www.w3.org/2000/svg">
<path fill-rule="evenodd" clip-rule="evenodd" d="M71.7152 0.990732C52.2972 3.50773 32.6572 14.5317 19.2772 30.4267C12.7202 38.2167 4.70318 53.6957 1.93618 63.9107C-0.805816 74.0337 -0.562816 95.9587 2.40518 106.326C6.34818 120.097 15.4892 135.876 24.1772 143.911C27.9472 147.397 27.9552 147.399 26.0692 144.411C19.5932 134.149 17.5212 129.96 14.5862 121.202C11.7812 112.833 11.2342 109.595 10.8222 98.9057C9.81518 72.8157 18.3952 50.7717 36.5102 32.9107C46.7062 22.8577 57.1472 16.3597 70.5872 11.7027C79.8852 8.48073 80.4492 8.41073 97.0872 8.41473C110.515 8.41773 115.228 8.78573 119.519 10.1647C127.38 12.6917 127.96 12.2427 121.076 8.95973C104.846 1.21673 89.3152 -1.29127 71.7152 0.990732ZM78.0872 21.3197C70.9422 22.9627 62.2412 25.9597 58.0872 28.2077C54.3252 30.2427 55.5652 30.2977 62.5872 28.4037C95.0752 19.6427 132.367 36.9867 147.963 68.1097C158.683 89.5017 159.561 112.15 150.519 134.076C148.952 137.877 146.702 142.346 145.519 144.007C141.454 149.716 144.392 148.039 149.487 141.743C155.79 133.953 160.683 124.733 163.728 114.911C167.095 104.05 167.103 84.6637 163.745 73.9107C155.851 48.6277 136.06 28.8867 112.087 22.3817C103.824 20.1387 85.6812 19.5727 78.0872 21.3197ZM81.2542 33.5777C80.8872 33.9437 80.5872 35.2807 80.5872 36.5487C80.5872 41.5367 74.1352 56.0737 65.4702 70.6077C52.3692 92.5817 51.0872 95.9967 51.0872 108.911C51.0872 117.905 51.4512 120.273 53.6232 125.419C56.1262 131.349 61.2012 139.563 65.9752 145.411L68.4242 148.411L70.5402 143.498C76.9142 128.696 81.8122 108.663 83.5552 90.2617C84.1112 84.3967 84.7672 79.3977 85.0122 79.1527C86.1462 78.0187 86.9822 87.7377 86.9272 101.411C86.8652 116.734 85.4352 127.365 81.5382 141.475C80.4652 145.36 79.5872 148.875 79.5872 149.287C79.5872 150.893 89.1772 143.049 95.5662 136.217C102.635 128.658 108.655 118.063 110.512 109.911C112.036 103.227 111.798 88.1577 110.063 81.3707C106.576 67.7357 100.439 55.6277 89.6222 41.0387C83.7832 33.1637 82.6642 32.1667 81.2542 33.5777ZM314.587 38.7887C314.587 40.2337 317.421 42.1317 318.543 41.4377C320.566 40.1877 319.626 37.9107 317.087 37.9107C315.712 37.9107 314.587 38.3057 314.587 38.7887ZM329.737 40.9107C328.47 44.5457 329.514 44.7637 333.627 41.7227C337.357 38.9657 337.373 37.9107 333.685 37.9107C331.359 37.9107 330.575 38.5067 329.737 40.9107ZM429.087 55.6467C421.592 58.6907 418.833 59.3107 412.587 59.3557C407.446 59.3937 404.065 58.8847 401.837 57.7377C399.988 56.7857 398.587 56.5127 398.587 57.1057C398.587 58.7347 404.671 63.8687 409.087 65.9667C411.287 67.0117 414.748 67.8767 416.778 67.8887C418.808 67.9007 420.726 68.3257 421.039 68.8337C421.764 70.0057 412.83 94.1427 411.328 95.0707C410.712 95.4517 406.356 96.0557 401.648 96.4147C396.939 96.7727 392.465 97.1437 391.705 97.2387C390.811 97.3497 388.943 93.7077 386.409 86.9107C384.255 81.1357 381.35 73.3737 379.953 69.6607L377.412 62.9107H369.184H360.957L351.764 87.8067C346.709 101.499 341.89 114.334 341.057 116.329C339.233 120.693 339.915 121.188 347.102 120.721L351.864 120.411L354.475 112.911L357.087 105.411L365.087 104.651C369.487 104.233 374.851 104.008 377.008 104.151L380.929 104.411L383.589 112.411L386.248 120.411L392.418 120.709C395.811 120.872 398.587 120.637 398.587 120.186C398.587 119.735 397.224 115.826 395.558 111.5C393.893 107.174 392.733 103.432 392.981 103.184C393.229 102.936 397.086 102.482 401.552 102.176L409.672 101.619L406.63 109.957C404.956 114.542 403.587 118.883 403.587 119.602C403.587 121.347 413.153 121.399 414.278 119.661C414.723 118.974 416.478 114.607 418.178 109.959C420.817 102.741 421.668 101.399 424.006 100.774C427.149 99.9337 442.331 99.2767 442.879 99.9577C443.079 100.207 444.802 104.911 446.707 110.411L450.171 120.411L456.379 120.709C459.793 120.872 462.587 120.67 462.587 120.258C462.587 119.847 460.965 115.323 458.982 110.206C456.999 105.088 455.635 100.229 455.95 99.4057C456.313 98.4607 457.853 97.9107 460.135 97.9107C463.685 97.9107 463.734 97.8557 463.049 94.6607C462.019 89.8577 461.718 89.6357 456.975 90.1707C454.373 90.4637 452.263 90.2087 451.724 89.5357C450.205 87.6367 441.508 63.6567 442.117 63.0467C443.29 61.8737 455.259 61.2057 459.999 62.0477C462.7 62.5277 465.14 62.6917 465.419 62.4117C466.451 61.3797 461.05 56.8017 455.958 54.3927C448.05 50.6517 440.524 51.0027 429.087 55.6467ZM219.458 61.8757C209.174 63.7297 200.997 69.4347 197.054 77.5077C194.092 83.5717 193.854 95.9187 196.56 103.129C199.116 109.937 205.354 115.962 212.296 118.327C217.419 120.073 237.505 121.493 239.124 120.224C239.695 119.777 245.282 111.086 251.541 100.911C257.799 90.7357 264.532 79.9357 266.503 76.9107L270.087 71.4107L270.587 95.9107L271.087 120.411H275.587H280.087L280.352 91.6607L280.618 62.9107H271.256H261.894L248.067 85.6607C240.462 98.1737 233.573 109.198 232.758 110.161C231.033 112.199 225.561 112.472 220.486 110.773C210.903 107.564 206 99.8097 206.851 89.2077C207.548 80.5297 210.859 75.5917 218.248 72.2087C223.654 69.7337 227.237 69.5207 237.087 71.0917C238.757 71.3577 239.14 70.7697 239.405 67.5287C239.58 65.3937 239.355 63.2897 238.905 62.8527C237.623 61.6067 224.584 60.9527 219.458 61.8757ZM285.587 91.9107V120.911H290.587H295.587V97.4107C295.587 84.4857 295.924 73.9167 296.337 73.9247C296.75 73.9327 299.981 80.7947 303.518 89.1747C307.054 97.5547 311.646 108.141 313.721 112.701L317.494 120.99L326.291 120.701L335.087 120.411L335.352 91.6607L335.618 62.9107H330.069H324.519L324.624 85.4107C324.682 97.7847 324.421 107.933 324.043 107.962C323.666 107.99 318.843 97.8647 313.325 85.4617L303.293 62.9107H294.44H285.587V91.9107ZM375.189 87.0857C377.182 93.1347 378.425 98.4437 377.95 98.8817C377.475 99.3207 372.926 99.9907 367.84 100.37C360.389 100.927 358.672 100.803 359.003 99.7357C359.229 99.0067 361.549 91.9637 364.158 84.0837C369.637 67.5387 368.66 67.2727 375.189 87.0857ZM439.177 91.6537C438.389 92.4427 425.374 94.0317 424.757 93.4147C424.154 92.8107 430.536 73.8237 431.938 72.0507C432.76 71.0117 433.814 73.0917 436.405 80.8637C438.27 86.4587 439.517 91.3137 439.177 91.6537ZM201.587 144.411C201.587 153.846 203.187 157.754 203.78 149.767C204.056 146.043 204.373 145.593 206.912 145.327C210.796 144.92 212.587 143.184 212.587 139.824C212.587 136.452 210.256 134.911 205.153 134.911H201.587V144.411ZM247.11 136.161C245.654 140.556 242.587 151.818 242.587 152.769C242.587 153.397 243.037 153.911 243.587 153.911C244.137 153.911 244.587 153.043 244.587 151.982C244.587 150.922 245.254 149.387 246.069 148.571C247.894 146.747 251.581 147.551 251.602 149.778C251.622 151.867 253.292 154.54 254.083 153.748C254.906 152.925 249.449 134.911 248.377 134.911C247.908 134.911 247.338 135.474 247.11 136.161ZM287.27 135.561C286.895 135.937 286.587 140.219 286.587 145.078V153.911H291.587C294.487 153.911 296.587 153.459 296.587 152.836C296.587 152.222 295.191 151.9 293.337 152.086L290.087 152.411L289.79 144.414C289.507 136.757 288.746 134.085 287.27 135.561ZM329.075 136.082C328.757 136.91 328.63 141.148 328.792 145.499L329.087 153.411L333.932 153.72C337.311 153.935 338.568 153.69 338.087 152.911C337.707 152.296 336.201 151.932 334.741 152.102L332.087 152.411L331.79 144.414C331.503 136.663 330.285 132.927 329.075 136.082ZM370.587 144.411V153.911H375.646C379.017 153.911 380.482 153.55 380.037 152.83C379.669 152.235 378.344 152.006 377.092 152.32C374.304 153.02 372.309 150.9 372.76 147.716C373.022 145.867 373.879 145.299 377.087 144.843C381.14 144.267 380.454 143.292 375.587 142.71C373.667 142.48 373.087 141.831 373.087 139.911C373.087 137.744 373.586 137.37 376.837 137.101C382.38 136.642 381.392 134.911 375.587 134.911H370.587V144.411ZM412.587 135.841C412.587 136.353 413.544 136.916 414.714 137.091C416.665 137.385 416.851 138.067 416.964 145.325C417.047 150.673 417.492 153.375 418.337 153.658C419.272 153.972 419.587 151.918 419.587 145.494C419.587 137.578 419.742 136.911 421.587 136.911C422.687 136.911 423.587 136.461 423.587 135.911C423.587 135.361 421.112 134.911 418.087 134.911C415.062 134.911 412.587 135.33 412.587 135.841ZM456.832 136.066C453.987 138.911 455.697 142.792 460.944 145.397C463.929 146.879 464.258 150.482 461.54 151.936C459.972 152.775 459.07 152.794 458.28 152.004C456.906 150.63 455.587 150.595 455.587 151.932C455.587 152.494 456.694 153.458 458.046 154.074C461.59 155.689 465.587 152.946 465.587 148.9C465.587 146.522 464.784 145.429 461.524 143.371C456.51 140.206 456.46 137.331 461.424 137.564C463.495 137.661 464.551 137.295 464.311 136.564C463.777 134.936 458.325 134.573 456.832 136.066ZM210.278 138.547C211.188 140.921 209.243 143.411 206.478 143.411C204.511 143.411 204.031 142.834 203.774 140.161C203.481 137.127 203.666 136.911 206.555 136.911C208.498 136.911 209.883 137.52 210.278 138.547ZM249.938 142.144C250.615 144.734 249.1 146.824 247.62 145.344C246.566 144.29 247.345 139.911 248.587 139.911C249.009 139.911 249.616 140.916 249.938 142.144Z" fill="white"/>
<path fill-rule="evenodd" clip-rule="evenodd" d="M71.7152 0.990732C52.2972 3.50773 32.6572 14.5317 19.2772 30.4267C12.7202 38.2167 4.70318 53.6957 1.93618 63.9107C-0.805816 74.0337 -0.562816 95.9587 2.40518 106.326C6.34818 120.097 15.4892 135.876 24.1772 143.911C27.9472 147.397 27.9552 147.399 26.0692 144.411C19.5932 134.149 17.5212 129.96 14.5862 121.202C11.7812 112.833 11.2342 109.595 10.8222 98.9057C9.81518 72.8157 18.3952 50.7717 36.5102 32.9107C46.7062 22.8577 57.1472 16.3597 70.5872 11.7027C79.8852 8.48073 80.4492 8.41073 97.0872 8.41473C110.515 8.41773 115.228 8.78573 119.519 10.1647C127.38 12.6917 127.96 12.2427 121.076 8.95973C104.846 1.21673 89.3152 -1.29127 71.7152 0.990732ZM78.0872 21.3197C70.9422 22.9627 62.2412 25.9597 58.0872 28.2077C54.3252 30.2427 55.5652 30.2977 62.5872 28.4037C95.0752 19.6427 132.367 36.9867 147.963 68.1097C158.683 89.5017 159.561 112.15 150.519 134.076C148.952 137.877 146.702 142.346 145.519 144.007C141.454 149.716 144.392 148.039 149.487 141.743C155.79 133.953 160.683 124.733 163.728 114.911C167.095 104.05 167.103 84.6637 163.745 73.9107C155.851 48.6277 136.06 28.8867 112.087 22.3817C103.824 20.1387 85.6812 19.5727 78.0872 21.3197ZM81.0462 33.9777C80.6832 34.5637 80.6572 35.3137 80.9872 35.6437C81.3172 35.9737 81.5872 35.6677 81.5872 34.9627C81.5872 34.0387 82.3552 34.1747 84.3372 35.4507L87.0872 37.2207L85.1822 35.0657C83.0612 32.6667 82.0242 32.3937 81.0462 33.9777ZM314.587 38.7887C314.587 40.2337 317.421 42.1317 318.543 41.4377C320.566 40.1877 319.626 37.9107 317.087 37.9107C315.712 37.9107 314.587 38.3057 314.587 38.7887ZM334.223 39.4047C334.539 40.2267 335.199 40.6507 335.692 40.3457C337.104 39.4737 336.736 37.9107 335.118 37.9107C334.226 37.9107 333.875 38.4977 334.223 39.4047ZM318.587 39.9107C318.587 40.4607 318.389 40.9107 318.146 40.9107C317.903 40.9107 317.427 40.4607 317.087 39.9107C316.747 39.3607 316.946 38.9107 317.528 38.9107C318.11 38.9107 318.587 39.3607 318.587 39.9107ZM330.087 42.9107C328.457 43.6117 328.399 43.7827 329.778 43.8407C330.708 43.8787 331.747 43.4607 332.087 42.9107C332.798 41.7607 332.763 41.7607 330.087 42.9107ZM76.1512 50.6177C75.6092 52.0427 75.7232 52.1577 76.7112 51.1777C77.3952 50.4987 77.7022 49.6917 77.3942 49.3847C77.0862 49.0767 76.5272 49.6317 76.1512 50.6177ZM398.92 57.3667C398.92 58.1677 399.303 58.5867 399.77 58.2977C400.237 58.0087 400.361 57.3537 400.044 56.8417C399.236 55.5337 398.92 55.6807 398.92 57.3667ZM219.458 61.8757C209.174 63.7297 200.997 69.4347 197.054 77.5077C194.092 83.5717 193.854 95.9187 196.56 103.129C199.116 109.937 205.354 115.962 212.296 118.327C217.419 120.073 237.505 121.493 239.124 120.224C239.695 119.777 245.282 111.086 251.541 100.911C257.799 90.7357 264.532 79.9357 266.503 76.9107L270.087 71.4107L270.587 95.9107L271.087 120.411H275.587H280.087L280.352 91.6607L280.618 62.9107H271.256H261.894L248.067 85.6607C240.462 98.1737 233.573 109.198 232.758 110.161C231.033 112.199 225.561 112.472 220.486 110.773C210.903 107.564 206 99.8097 206.851 89.2077C207.548 80.5297 210.859 75.5917 218.248 72.2087C223.654 69.7337 227.237 69.5207 237.087 71.0917C238.757 71.3577 239.14 70.7697 239.405 67.5287C239.58 65.3937 239.355 63.2897 238.905 62.8527C237.623 61.6067 224.584 60.9527 219.458 61.8757ZM448.837 61.5997C449.799 61.8517 451.375 61.8517 452.337 61.5997C453.299 61.3487 452.512 61.1427 450.587 61.1427C448.662 61.1427 447.875 61.3487 448.837 61.5997ZM457.337 61.5727C458.025 61.8507 459.15 61.8507 459.837 61.5727C460.525 61.2957 459.962 61.0687 458.587 61.0687C457.212 61.0687 456.65 61.2957 457.337 61.5727ZM463.087 61.9107C462.747 62.4607 463.171 62.9107 464.028 62.9107C464.885 62.9107 465.587 62.4607 465.587 61.9107C465.587 61.3607 465.164 60.9107 464.646 60.9107C464.128 60.9107 463.427 61.3607 463.087 61.9107ZM435.087 64.9747C431.237 66.5457 426.373 67.8497 424.278 67.8707C422.183 67.8927 420.726 68.3257 421.039 68.8337C421.353 69.3407 419.579 75.2117 417.098 81.8807C414.617 88.5487 412.587 94.2327 412.587 94.5107C412.587 94.7897 415.458 94.8897 418.967 94.7337C423.14 94.5477 425.2 94.0647 424.921 93.3377C424.387 91.9467 430.438 73.8567 432.006 72.1597C432.897 71.1937 433.918 73.2187 436.48 81.0347C439.186 89.2897 439.549 91.3267 438.443 92.0577C437.554 92.6447 438.12 92.7777 440.087 92.4437C441.737 92.1627 445.231 91.6437 447.851 91.2907C451.176 90.8427 452.345 90.3117 451.719 89.5297C451.227 88.9147 448.732 82.8207 446.175 75.9887C442.589 66.4097 441.819 63.3807 442.806 62.7537C445.23 61.2167 442.073 62.1247 435.087 64.9747ZM285.587 91.9107V120.911H290.587H295.587V97.4107C295.587 84.4857 295.924 73.9167 296.337 73.9247C296.75 73.9327 299.981 80.7947 303.518 89.1747C307.054 97.5547 311.646 108.141 313.721 112.701L317.494 120.99L326.291 120.701L335.087 120.411L335.352 91.6607L335.618 62.9107H330.069H324.519L324.624 85.4107C324.682 97.7847 324.421 107.933 324.043 107.962C323.666 107.99 318.843 97.8647 313.325 85.4617L303.293 62.9107H294.44H285.587V91.9107ZM351.764 87.8067C346.709 101.499 341.89 114.334 341.057 116.329C339.232 120.695 339.913 121.188 347.127 120.721L351.912 120.411L354.258 113.411C355.548 109.561 357.202 105.961 357.933 105.411C358.664 104.861 359.073 103.849 358.841 103.161C358.61 102.474 359.245 101.879 360.254 101.841C361.917 101.777 361.929 101.708 360.376 101.091C358.841 100.48 359.187 98.8407 363.769 85.0467C368.863 69.7107 368.874 69.6887 370.219 72.8857C373.12 79.7867 378.709 97.9047 378.193 98.7397C377.893 99.2247 378.646 99.4817 379.867 99.3107C387.581 98.2307 389.587 97.7007 389.587 96.7407C389.587 95.7817 386.184 86.2147 379.6 68.6607L377.443 62.9107H369.2H360.957L351.764 87.8067ZM84.2802 76.2677C83.8992 77.2617 83.6402 79.4997 83.7052 81.2427L83.8242 84.4107L84.5872 81.4107C85.0552 79.5727 85.3962 79.1527 85.4692 80.3277C85.5342 81.3817 85.8382 81.9937 86.1442 81.6867C86.4502 81.3807 86.3122 79.6297 85.8372 77.7957C85.1442 75.1217 84.8362 74.8197 84.2802 76.2677ZM86.6662 92.4937C86.7142 93.6587 86.9512 93.8957 87.2702 93.0987C87.5592 92.3767 87.5232 91.5137 87.1912 91.1817C86.8592 90.8497 86.6232 91.4397 86.6662 92.4937ZM82.6662 94.4937C82.7142 95.6587 82.9512 95.8957 83.2702 95.0987C83.5592 94.3767 83.5232 93.5137 83.1912 93.1817C82.8592 92.8497 82.6232 93.4397 82.6662 94.4937ZM462.666 96.4937C462.714 97.6587 462.951 97.8957 463.27 97.0987C463.559 96.3767 463.523 95.5137 463.191 95.1817C462.859 94.8497 462.623 95.4397 462.666 96.4937ZM403.4 96.5937C404.121 96.8827 404.984 96.8467 405.316 96.5147C405.648 96.1827 405.058 95.9467 404.004 95.9897C402.839 96.0377 402.602 96.2747 403.4 96.5937ZM392.4 97.5937C393.121 97.8827 393.984 97.8467 394.316 97.5147C394.648 97.1827 394.058 96.9467 393.004 96.9897C391.839 97.0377 391.602 97.2747 392.4 97.5937ZM448.11 98.6577C444.273 98.8527 441.599 99.3267 442.169 99.7117C442.738 100.096 444.771 104.911 446.687 110.411L450.171 120.411L456.379 120.709C459.793 120.872 462.587 120.644 462.587 120.202C462.587 119.759 460.993 115.35 459.046 110.404C457.098 105.458 455.706 100.624 455.952 99.6607C456.198 98.6977 456.104 97.9987 455.743 98.1067C455.382 98.2147 451.947 98.4617 448.11 98.6577ZM436.337 99.5727C437.025 99.8507 438.15 99.8507 438.837 99.5727C439.525 99.2957 438.962 99.0687 437.587 99.0687C436.212 99.0687 435.65 99.2957 436.337 99.5727ZM423.4 100.594C424.121 100.883 424.984 100.847 425.316 100.515C425.648 100.183 425.058 99.9467 424.004 99.9897C422.839 100.038 422.602 100.275 423.4 100.594ZM407.802 101.594C409.353 102.001 409.234 102.821 406.552 110.169C404.921 114.638 403.587 118.883 403.587 119.602C403.587 121.337 412.978 121.388 414.296 119.661C414.821 118.974 416.659 114.474 418.381 109.661L421.513 100.911L413.8 101.027C409.558 101.091 406.859 101.346 407.802 101.594ZM386.357 102.652C380.334 102.965 379.732 103.181 380.634 104.706C381.188 105.644 382.682 109.561 383.953 113.411L386.264 120.411L392.426 120.709C395.814 120.872 398.587 120.637 398.587 120.186C398.587 119.735 397.237 115.859 395.587 111.574C393.937 107.29 392.587 103.617 392.587 103.414C392.587 103.21 393.825 102.856 395.337 102.627C397.76 102.26 397.79 102.216 395.587 102.257C394.212 102.282 390.058 102.46 386.357 102.652ZM363.837 104.6C364.799 104.852 366.375 104.852 367.337 104.6C368.299 104.349 367.512 104.143 365.587 104.143C363.662 104.143 362.875 104.349 363.837 104.6ZM86.7452 108.911C86.7452 110.286 86.9722 110.849 87.2492 110.161C87.5272 109.474 87.5272 108.349 87.2492 107.661C86.9722 106.974 86.7452 107.536 86.7452 108.911ZM50.6662 116.494C50.7142 117.659 50.9512 117.896 51.2702 117.099C51.5592 116.377 51.5232 115.514 51.1912 115.182C50.8592 114.85 50.6232 115.44 50.6662 116.494ZM96.0242 135.161L93.0872 138.411L96.3372 135.474C98.1242 133.859 99.5872 132.396 99.5872 132.224C99.5872 131.451 98.7622 132.132 96.0242 135.161ZM201.587 144.411C201.587 153.846 203.187 157.754 203.78 149.767C204.056 146.043 204.373 145.593 206.912 145.327C210.796 144.92 212.587 143.184 212.587 139.824C212.587 136.452 210.256 134.911 205.153 134.911H201.587V144.411ZM247.11 136.161C245.654 140.556 242.587 151.818 242.587 152.769C242.587 153.397 243.037 153.911 243.587 153.911C244.137 153.911 244.587 153.043 244.587 151.982C244.587 150.922 245.254 149.387 246.069 148.571C247.894 146.747 251.581 147.551 251.602 149.778C251.622 151.867 253.292 154.54 254.083 153.748C254.906 152.925 249.449 134.911 248.377 134.911C247.908 134.911 247.338 135.474 247.11 136.161ZM287.27 135.561C286.895 135.937 286.587 140.219 286.587 145.078V153.911H291.587C294.487 153.911 296.587 153.459 296.587 152.836C296.587 152.222 295.191 151.9 293.337 152.086L290.087 152.411L289.79 144.414C289.507 136.757 288.746 134.085 287.27 135.561ZM329.075 136.082C328.757 136.91 328.63 141.148 328.792 145.499L329.087 153.411L333.932 153.72C337.311 153.935 338.568 153.69 338.087 152.911C337.707 152.296 336.201 151.932 334.741 152.102L332.087 152.411L331.79 144.414C331.503 136.663 330.285 132.927 329.075 136.082ZM370.587 144.411V153.911H375.646C379.017 153.911 380.482 153.55 380.037 152.83C379.669 152.235 378.344 152.006 377.092 152.32C374.304 153.02 372.309 150.9 372.76 147.716C373.022 145.867 373.879 145.299 377.087 144.843C381.14 144.267 380.454 143.292 375.587 142.71C373.667 142.48 373.087 141.831 373.087 139.911C373.087 137.744 373.586 137.37 376.837 137.101C382.38 136.642 381.392 134.911 375.587 134.911H370.587V144.411ZM412.587 135.841C412.587 136.353 413.544 136.916 414.714 137.091C416.665 137.385 416.851 138.067 416.964 145.325C417.047 150.673 417.492 153.375 418.337 153.658C419.272 153.972 419.587 151.918 419.587 145.494C419.587 137.578 419.742 136.911 421.587 136.911C422.687 136.911 423.587 136.461 423.587 135.911C423.587 135.361 421.112 134.911 418.087 134.911C415.062 134.911 412.587 135.33 412.587 135.841ZM456.832 136.066C453.987 138.911 455.697 142.792 460.944 145.397C463.929 146.879 464.258 150.482 461.54 151.936C459.972 152.775 459.07 152.794 458.28 152.004C456.906 150.63 455.587 150.595 455.587 151.932C455.587 152.494 456.694 153.458 458.046 154.074C461.59 155.689 465.587 152.946 465.587 148.9C465.587 146.522 464.784 145.429 461.524 143.371C456.51 140.206 456.46 137.331 461.424 137.564C463.495 137.661 464.551 137.295 464.311 136.564C463.777 134.936 458.325 134.573 456.832 136.066ZM210.278 138.547C211.188 140.921 209.243 143.411 206.478 143.411C204.511 143.411 204.031 142.834 203.774 140.161C203.481 137.127 203.666 136.911 206.555 136.911C208.498 136.911 209.883 137.52 210.278 138.547ZM88.5112 142.661L86.0872 145.411L88.8372 142.987C91.4072 140.721 92.0462 139.911 91.2612 139.911C91.0822 139.911 89.8452 141.149 88.5112 142.661ZM249.938 142.144C250.615 144.734 249.1 146.824 247.62 145.344C246.566 144.29 247.345 139.911 248.587 139.911C249.009 139.911 249.616 140.916 249.938 142.144ZM65.5872 145.166C65.5872 145.441 66.2222 146.193 66.9982 146.837C68.0852 147.739 68.5812 147.71 69.1582 146.71C69.5702 145.995 69.5392 145.745 69.0892 146.152C68.6392 146.56 67.6672 146.392 66.9292 145.78C66.1912 145.167 65.5872 144.891 65.5872 145.166ZM79.5872 148.47C79.5872 149.327 80.0372 149.751 80.5872 149.411C81.1372 149.071 81.5872 148.37 81.5872 147.852C81.5872 147.334 81.1372 146.911 80.5872 146.911C80.0372 146.911 79.5872 147.613 79.5872 148.47Z" fill="white"/>
<path fill-rule="evenodd" clip-rule="evenodd" d="M70.0871 1.39273C50.1301 4.59573 31.2041 15.5377 18.5881 31.1647C12.8131 38.3177 4.67111 54.3707 1.97911 63.9107C-0.818892 73.8297 -0.615891 95.7767 2.37111 106.202C6.29711 119.906 15.5841 135.965 24.1771 143.911C27.9471 147.397 27.9551 147.399 26.0691 144.411C19.5931 134.149 17.5211 129.96 14.5861 121.202C11.7811 112.833 11.2341 109.595 10.8221 98.9057C10.4691 89.7577 10.7661 84.3367 11.9301 78.7097C19.2171 43.4737 44.2221 17.4957 78.5871 9.45973C88.2471 7.20173 108.292 7.40373 117.627 9.85473C121.7 10.9237 125.186 11.6457 125.373 11.4577C125.936 10.8947 115.541 6.25473 108.723 4.02573C102 1.82673 88.8601 -0.156269 82.1131 0.0097314C79.8991 0.0637314 74.4871 0.686732 70.0871 1.39273ZM81.5871 20.5357C73.1791 22.1567 54.9601 28.6177 55.9651 29.6217C56.1851 29.8427 59.1251 29.3077 62.4981 28.4337C95.6771 19.8367 132.764 37.0967 148.111 68.2777C154.157 80.5597 156.589 90.6237 156.58 103.321C156.57 118.222 152.052 134.832 145.512 144.017C141.947 149.023 143.978 148.262 148.503 142.896C154.86 135.357 160.326 125.413 163.337 115.911C165.682 108.512 166.033 105.726 166.048 94.4107C166.063 83.5727 165.678 80.1627 163.735 73.9107C155.911 48.7427 135.968 28.8847 111.953 22.3497C106.168 20.7747 86.4531 19.5977 81.5871 20.5357ZM81.0461 33.9777C80.6831 34.5637 80.6571 35.3137 80.9871 35.6437C81.3171 35.9737 81.5871 35.7327 81.5871 35.1087C81.5871 34.4607 82.3011 34.2477 83.2511 34.6117C84.3701 35.0417 84.6781 34.8677 84.1921 34.0807C83.2901 32.6217 81.9121 32.5767 81.0461 33.9777ZM315.262 38.5687C314.468 39.3627 316.427 41.9107 317.832 41.9107C318.382 41.9107 318.214 41.1517 317.459 40.2237C316.258 38.7457 316.305 38.6177 317.837 39.1917C318.799 39.5527 319.587 39.4117 319.587 38.8797C319.587 37.7907 316.278 37.5527 315.262 38.5687ZM334.087 38.9107C334.427 39.4607 335.128 39.9107 335.646 39.9107C336.164 39.9107 336.587 39.4607 336.587 38.9107C336.587 38.3607 335.885 37.9107 335.028 37.9107C334.171 37.9107 333.747 38.3607 334.087 38.9107ZM330.587 42.9107C329.686 43.4927 329.562 43.8857 330.278 43.8957C330.933 43.9037 331.747 43.4607 332.087 42.9107C332.854 41.6687 332.508 41.6687 330.587 42.9107ZM76.1511 50.6177C75.6091 52.0427 75.7231 52.1577 76.7111 51.1777C77.3951 50.4987 77.7021 49.6917 77.3941 49.3847C77.0861 49.0767 76.5271 49.6317 76.1511 50.6177ZM398.92 57.3667C398.92 58.1677 399.303 58.5867 399.77 58.2977C400.237 58.0087 400.361 57.3537 400.044 56.8417C399.236 55.5337 398.92 55.6807 398.92 57.3667ZM219.587 61.8577C208.773 63.8187 201.89 68.6147 197.617 77.1657C191.694 89.0197 194.187 104.868 203.226 112.825C209.057 117.957 214.614 119.703 227.729 120.525L238.371 121.192L241.229 117.182C242.801 114.977 249.712 103.907 256.587 92.5817C263.462 81.2577 269.416 71.9737 269.819 71.9517C270.222 71.9287 270.672 82.8227 270.819 96.1607L271.087 120.411H275.587H280.087L280.352 91.6607L280.618 62.9107H271.243H261.869L246.978 87.3957L232.087 111.88L227.963 111.896C214.417 111.946 205.791 102.598 206.778 88.9397C207.635 77.0957 215.478 70.3187 228.087 70.5257C231.937 70.5897 235.987 70.8147 237.087 71.0257C238.744 71.3447 239.132 70.8107 239.348 67.9107C239.492 65.9857 239.263 63.8867 238.841 63.2457C237.836 61.7187 225.326 60.8177 219.587 61.8577ZM448.4 61.5937C449.121 61.8827 449.984 61.8467 450.316 61.5147C450.648 61.1827 450.058 60.9467 449.004 60.9897C447.839 61.0377 447.602 61.2747 448.4 61.5937ZM458.4 61.5937C459.121 61.8827 459.984 61.8467 460.316 61.5147C460.648 61.1827 460.058 60.9467 459.004 60.9897C457.839 61.0377 457.602 61.2747 458.4 61.5937ZM463.087 61.9107C462.747 62.4607 463.171 62.9107 464.028 62.9107C464.885 62.9107 465.587 62.4607 465.587 61.9107C465.587 61.3607 465.164 60.9107 464.646 60.9107C464.128 60.9107 463.427 61.3607 463.087 61.9107ZM435.087 64.9747C431.237 66.5457 426.737 67.8527 425.087 67.8797C422.167 67.9267 421.973 68.2477 417.791 79.9577C415.428 86.5737 413.232 92.6717 412.911 93.5077C412.42 94.7897 413.347 94.9837 418.804 94.7407C424.014 94.5087 425.205 94.1557 424.895 92.9317C424.684 92.0947 426.103 86.9727 428.049 81.5487C429.995 76.1247 431.587 71.5117 431.587 71.2987C431.587 71.0857 431.931 70.9107 432.35 70.9107C432.77 70.9107 434.683 75.4277 436.6 80.9477C439.609 89.6107 439.88 91.1167 438.586 91.9517C437.073 92.9277 441.235 92.5507 448.253 91.0757L451.418 90.4107L446.502 77.0667C443.798 69.7267 441.838 63.3147 442.145 62.8167C442.453 62.3187 442.566 61.9577 442.396 62.0147C442.226 62.0717 438.937 63.4037 435.087 64.9747ZM285.587 91.7797V120.65L290.587 120.762L295.587 120.875V97.3927C295.587 84.4777 295.924 73.9157 296.337 73.9217C296.75 73.9277 301.588 84.3907 307.089 97.1717L317.092 120.411H326.089H335.087L335.352 91.6607L335.618 62.9107H330.035H324.452L324.769 85.9117C324.944 98.5627 324.736 108.796 324.306 108.652C323.877 108.508 318.973 98.1577 313.409 85.6507L303.293 62.9107H294.44H285.587V91.7797ZM359.724 66.1607C359.197 67.9477 354.496 80.8047 349.277 94.7307C342.443 112.963 340.144 120.188 341.064 120.541C341.766 120.81 344.495 120.891 347.127 120.721L351.912 120.411L354.258 113.411C355.548 109.561 357.202 105.961 357.933 105.411C358.664 104.861 359.086 103.886 358.869 103.245C358.653 102.604 359.289 101.868 360.282 101.611C361.979 101.171 361.976 101.136 360.23 101.027C359.195 100.962 358.576 100.358 358.833 99.6607C359.086 98.9737 361.443 91.9337 364.07 84.0177C367.069 74.9857 369.129 70.1437 369.602 71.0177C371.584 74.6777 378.724 97.1117 378.277 98.2757C377.935 99.1667 378.474 99.5007 379.928 99.2997C387.554 98.2427 389.587 97.6917 389.587 96.6797C389.587 96.0527 386.829 88.1977 383.457 79.2247L377.328 62.9107H369.004H360.681L359.724 66.1607ZM84.2111 76.4497C83.8681 77.3427 83.6321 79.2747 83.6871 80.7427C83.7681 82.8887 83.9671 82.6477 84.7031 79.5097C85.6421 75.5087 85.3261 73.5437 84.2111 76.4497ZM85.6661 80.4937C85.7141 81.6587 85.9511 81.8957 86.2701 81.0987C86.5591 80.3767 86.5231 79.5137 86.1911 79.1817C85.8591 78.8497 85.6231 79.4397 85.6661 80.4937ZM86.6661 92.4937C86.7141 93.6587 86.9511 93.8957 87.2701 93.0987C87.5591 92.3767 87.5231 91.5137 87.1911 91.1817C86.8591 90.8497 86.6231 91.4397 86.6661 92.4937ZM82.6661 94.4937C82.7141 95.6587 82.9511 95.8957 83.2701 95.0987C83.5591 94.3767 83.5231 93.5137 83.1911 93.1817C82.8591 92.8497 82.6231 93.4397 82.6661 94.4937ZM462.666 96.4937C462.714 97.6587 462.951 97.8957 463.27 97.0987C463.559 96.3767 463.523 95.5137 463.191 95.1817C462.859 94.8497 462.623 95.4397 462.666 96.4937ZM403.4 96.5937C404.121 96.8827 404.984 96.8467 405.316 96.5147C405.648 96.1827 405.058 95.9467 404.004 95.9897C402.839 96.0377 402.602 96.2747 403.4 96.5937ZM448.11 98.7117C444.273 98.8767 441.605 99.3267 442.18 99.7117C442.756 100.096 444.826 104.911 446.781 110.411L450.335 120.411L455.084 120.721C462.775 121.223 462.965 120.929 459.953 113.191C458.501 109.462 456.813 104.611 456.2 102.411L455.087 98.4107L448.11 98.7117ZM436.337 99.5727C437.025 99.8507 438.15 99.8507 438.837 99.5727C439.525 99.2957 438.962 99.0687 437.587 99.0687C436.212 99.0687 435.65 99.2957 436.337 99.5727ZM423.4 100.594C424.121 100.883 424.984 100.847 425.316 100.515C425.648 100.183 425.058 99.9467 424.004 99.9897C422.839 100.038 422.602 100.275 423.4 100.594ZM407.91 101.614C409.152 101.936 409.517 102.616 409.055 103.748C407.602 107.309 403.587 119.305 403.587 120.086C403.587 121.42 413.247 121.036 414.296 119.661C414.821 118.974 416.659 114.474 418.381 109.661L421.513 100.911L413.8 101.027C409.558 101.091 406.908 101.355 407.91 101.614ZM386.11 102.658C382.273 102.853 379.614 103.327 380.201 103.712C380.788 104.096 382.416 108.011 383.818 112.411L386.369 120.411L391.621 120.718C394.509 120.887 397.255 120.643 397.722 120.176C398.19 119.708 397.225 115.829 395.579 111.555C393.934 107.281 392.587 103.619 392.587 103.417C392.587 103.215 393.599 102.855 394.837 102.617C397.451 102.113 396.746 102.117 386.11 102.658ZM363.856 104.604C364.829 104.858 366.179 104.841 366.856 104.567C367.533 104.293 366.737 104.086 365.087 104.106C363.437 104.126 362.883 104.35 363.856 104.604ZM86.7451 108.911C86.7451 110.286 86.9721 110.849 87.2491 110.161C87.5271 109.474 87.5271 108.349 87.2491 107.661C86.9721 106.974 86.7451 107.536 86.7451 108.911ZM50.6661 116.494C50.7141 117.659 50.9511 117.896 51.2701 117.099C51.5591 116.377 51.5231 115.514 51.1911 115.182C50.8591 114.85 50.6231 115.44 50.6661 116.494ZM96.0241 135.161L93.0871 138.411L96.3371 135.474C98.1241 133.859 99.5871 132.396 99.5871 132.224C99.5871 131.451 98.7621 132.132 96.0241 135.161ZM201.587 144.411C201.587 153.846 203.187 157.754 203.78 149.767C204.056 146.043 204.373 145.593 206.912 145.327C210.613 144.94 212.587 143.211 212.587 140.36C212.587 136.928 209.97 134.911 205.516 134.911H201.587V144.411ZM247.087 136.161C246.454 137.975 242.587 152.78 242.587 153.393C242.587 153.678 243.037 153.911 243.587 153.911C244.137 153.911 244.587 153.097 244.587 152.102C244.587 146.406 250.839 145.419 251.943 150.941C252.27 152.574 253.029 153.911 253.629 153.911C254.23 153.911 254.491 153.124 254.21 152.161C253.928 151.198 252.703 146.923 251.488 142.661C249.394 135.315 248.068 133.356 247.087 136.161ZM287.035 136.186C286.739 136.957 286.63 141.148 286.792 145.499L287.087 153.411L291.837 153.716C294.992 153.918 296.587 153.624 296.587 152.841C296.587 152.067 295.569 151.865 293.626 152.253C291.997 152.579 290.441 152.483 290.167 152.041C289.894 151.599 289.59 147.777 289.492 143.548C289.324 136.303 288.238 133.05 287.035 136.186ZM329.206 135.718C328.873 136.258 328.741 140.46 328.913 145.055L329.227 153.411L334.138 153.725C336.839 153.898 338.703 153.694 338.28 153.271C337.858 152.849 336.292 152.482 334.8 152.457C332.105 152.411 332.085 152.359 331.79 144.414C331.509 136.819 330.54 133.56 329.206 135.718ZM370.587 144.411V153.911H375.646C378.776 153.911 380.469 153.528 380.085 152.907C379.744 152.355 378.446 152.159 377.202 152.472C374.418 153.17 372.307 150.91 372.76 147.716C373.022 145.867 373.879 145.299 377.087 144.843C379.932 144.439 380.611 144.058 379.44 143.525C378.534 143.113 377.184 142.86 376.44 142.962C373.202 143.407 372.462 142.842 372.771 140.161C373.027 137.933 373.657 137.349 376.087 137.084C381.5 136.494 381.281 134.911 375.787 134.911H370.587V144.411ZM412.587 135.841C412.587 136.353 413.57 136.916 414.772 137.091C416.801 137.388 416.962 137.975 417.022 145.328C417.066 150.724 417.485 153.377 418.337 153.661C419.272 153.973 419.587 151.916 419.587 145.494C419.587 137.578 419.742 136.911 421.587 136.911C422.687 136.911 423.587 136.461 423.587 135.911C423.587 135.361 421.112 134.911 418.087 134.911C415.062 134.911 412.587 135.33 412.587 135.841ZM456.832 136.066C453.987 138.911 455.697 142.792 460.944 145.397C463.905 146.867 464.26 150.481 461.584 151.913C460.016 152.752 459.106 152.757 458.112 151.932C457.188 151.165 456.562 151.142 456.12 151.858C455.765 152.433 456.606 153.418 457.99 154.049C461.847 155.806 465.811 152.889 465.396 148.599C465.147 146.033 464.345 145.048 461.282 143.552C458.391 142.14 457.55 141.179 457.782 139.552C458.015 137.918 458.797 137.402 461.087 137.375C462.737 137.355 464.087 136.905 464.087 136.375C464.087 134.903 458.244 134.654 456.832 136.066ZM210.278 138.547C211.188 140.921 209.243 143.411 206.478 143.411C204.511 143.411 204.031 142.834 203.774 140.161C203.481 137.127 203.666 136.911 206.555 136.911C208.498 136.911 209.883 137.52 210.278 138.547ZM88.5111 142.661L86.0871 145.411L88.8371 142.987C91.4071 140.721 92.0461 139.911 91.2611 139.911C91.0821 139.911 89.8451 141.149 88.5111 142.661ZM249.922 142.085C250.6 144.677 249.989 145.911 248.028 145.911C246.434 145.911 246.335 145.454 247.217 142.161C247.981 139.31 249.188 139.276 249.922 142.085ZM65.5871 145.166C65.5871 145.441 66.2221 146.193 66.9981 146.837C68.0851 147.739 68.5811 147.71 69.1581 146.71C69.5701 145.995 69.5391 145.745 69.0891 146.152C68.6391 146.56 67.6671 146.392 66.9291 145.78C66.1911 145.167 65.5871 144.891 65.5871 145.166ZM79.5871 148.47C79.5871 149.327 80.0371 149.751 80.5871 149.411C81.1371 149.071 81.5871 148.37 81.5871 147.852C81.5871 147.334 81.1371 146.911 80.5871 146.911C80.0371 146.911 79.5871 147.613 79.5871 148.47Z" fill="white"/>
<path fill-rule="evenodd" clip-rule="evenodd" d="M72.6481 0.933812C57.5241 3.04081 43.5001 9.11081 31.2361 18.8558C18.2401 29.1838 9.15412 42.6068 3.44512 59.9108C0.563116 68.6458 0.303116 70.5378 0.223116 83.4108C0.117116 100.291 1.58212 106.933 8.60612 121.411C12.8651 130.19 23.0751 144.756 24.1891 143.643C24.4101 143.421 22.3781 138.894 19.6741 133.582C8.36412 111.368 7.38312 84.1958 17.0741 61.5918C22.5361 48.8528 26.5541 42.9478 36.5871 32.9128C51.3491 18.1478 68.1391 9.97881 87.9391 7.92681C97.1061 6.97681 112.817 7.93581 117.718 9.74381C119.021 10.2248 121.437 10.9338 123.087 11.3198C125.861 11.9698 125.936 11.9188 124.087 10.6408C120.658 8.27281 109.383 3.98281 102.515 2.43281C93.8611 0.479812 80.6591 -0.182188 72.6481 0.933812ZM78.5871 21.3438C71.6721 22.8088 60.7161 26.5778 59.1371 28.0338C57.8251 29.2448 58.8971 29.1628 67.0871 27.4278C89.7951 22.6188 113.846 29.9508 132.297 47.3078C148.542 62.5898 156.558 81.2928 156.557 103.911C156.556 116.147 154.368 126.192 149.448 136.554C144.985 145.951 144.986 145.935 149.278 141.28C164.494 124.78 170.352 96.7688 163.466 73.4428C156.2 48.8278 135.831 28.9688 111.087 22.3748C102.752 20.1538 86.6171 19.6418 78.5871 21.3438ZM315.764 39.5778C315.942 40.4948 316.762 41.4678 317.587 41.7408C318.92 42.1808 318.92 42.0308 317.587 40.3858C316.228 38.7098 316.251 38.5978 317.837 39.1918C318.799 39.5528 319.587 39.4118 319.587 38.8798C319.587 38.3468 318.654 37.9108 317.514 37.9108C316.116 37.9108 315.546 38.4538 315.764 39.5778ZM334.097 38.9268C334.443 39.4858 335.144 39.6848 335.656 39.3678C337.043 38.5108 336.785 37.9108 335.028 37.9108C334.171 37.9108 333.752 38.3678 334.097 38.9268ZM219.458 61.8908C203.972 64.6338 194.617 75.4448 194.597 90.6228C194.583 100.607 197.328 107.633 203.293 112.883C208.963 117.874 214.447 119.567 227.86 120.465C238.165 121.156 238.261 121.141 240.247 118.616C241.349 117.216 248.288 106.139 255.668 94.0008C263.049 81.8618 269.416 71.9268 269.819 71.9208C270.222 71.9158 270.672 82.8158 270.819 96.1438L271.087 120.378L275.587 120.394L280.087 120.411L280.352 91.6608L280.618 62.9108H271.25H261.882L246.984 87.4008L232.087 111.89L227.963 111.901C222.787 111.914 215.883 109.523 212.734 106.627C204.203 98.7838 204.745 81.3818 213.728 74.6688C219.895 70.0598 225.19 69.2508 237.087 71.0998C238.766 71.3608 239.104 70.8208 239.192 67.7348C239.249 65.7128 239.024 63.6288 238.692 63.1048C237.825 61.7368 224.922 60.9228 219.458 61.8908ZM463.587 61.9108C463.587 62.4608 464.037 62.9108 464.587 62.9108C465.137 62.9108 465.587 62.4608 465.587 61.9108C465.587 61.3608 465.137 60.9108 464.587 60.9108C464.037 60.9108 463.587 61.3608 463.587 61.9108ZM435.087 64.9748C431.237 66.5458 426.737 67.8528 425.087 67.8798C422.167 67.9268 421.973 68.2478 417.791 79.9578C415.428 86.5738 413.232 92.6718 412.911 93.5078C412.419 94.7898 413.35 94.9838 418.837 94.7388C423.694 94.5228 425.22 94.1188 424.847 93.1458C424.299 91.7168 431.41 70.9098 432.446 70.9128C433.518 70.9158 439.833 89.8288 439.26 91.3218C438.71 92.7528 440.59 92.7018 448.214 91.0768L451.342 90.4108L446.505 77.4108C443.845 70.2608 441.861 63.8488 442.096 63.1608C442.332 62.4738 442.426 61.9578 442.306 62.0148C442.185 62.0718 438.937 63.4038 435.087 64.9748ZM285.822 91.6418L286.087 120.373L290.587 120.374H295.087L295.587 96.3928L296.087 72.4108L298.4 77.4108C299.673 80.1608 304.336 90.8488 308.763 101.161C313.191 111.474 317.1 119.941 317.45 119.978C317.8 120.014 321.912 120.109 326.587 120.189L335.087 120.334L335.352 91.5698L335.618 62.8048L330.352 63.1078L325.087 63.4108V86.1618C325.087 98.9188 324.698 108.783 324.202 108.617C323.715 108.454 321.657 104.516 319.629 99.8658C317.6 95.2158 313.088 84.9988 309.601 77.1608L303.262 62.9108H294.409H285.556L285.822 91.6418ZM360.047 65.1608C359.676 66.3978 355.138 78.7958 349.963 92.7098C344.788 106.625 340.449 118.55 340.321 119.21C340.105 120.318 348.123 120.998 351.175 120.13C351.773 119.96 353.315 116.467 354.601 112.366C355.887 108.266 357.493 104.911 358.169 104.911C358.895 104.911 359.191 104.114 358.892 102.968C358.387 101.039 368.39 69.3808 369.236 70.2268C370.439 71.4288 378.639 96.6048 378.278 97.9858C377.978 99.1308 378.457 99.4988 379.974 99.2908C387.473 98.2598 389.587 97.6928 389.587 96.7118C389.587 96.1028 386.821 88.2478 383.44 79.2578L377.292 62.9108H369.007C361.281 62.9108 360.676 63.0628 360.047 65.1608ZM84.2111 76.4498C83.8681 77.3428 83.6261 78.8248 83.6731 79.7428C83.7201 80.6598 84.1551 80.0838 84.6401 78.4608C85.5831 75.3048 85.2491 73.7428 84.2111 76.4498ZM462.666 96.4938C462.714 97.6588 462.951 97.8958 463.27 97.0988C463.559 96.3768 463.523 95.5138 463.191 95.1818C462.859 94.8498 462.623 95.4398 462.666 96.4938ZM448.932 98.7058L442.776 99.0018L446.554 109.706L450.332 120.411L455.934 120.607C459.015 120.715 461.73 120.488 461.968 120.103C462.206 119.718 461.291 116.705 459.934 113.407C458.578 110.109 456.932 105.386 456.277 102.911L455.087 98.4108L448.932 98.7058ZM436.4 99.5938C437.121 99.8828 437.984 99.8468 438.316 99.5148C438.648 99.1828 438.058 98.9468 437.004 98.9898C435.839 99.0378 435.602 99.2748 436.4 99.5938ZM406.781 110.161C405.021 115.249 403.582 119.712 403.584 120.081C403.589 121.115 413.433 120.48 414.404 119.382C414.877 118.848 416.67 114.474 418.389 109.661L421.513 100.911H415.747H409.982L406.781 110.161ZM386.11 102.658C382.273 102.853 379.634 103.327 380.245 103.712C380.857 104.096 382.49 108.011 383.874 112.411L386.39 120.411L391.929 120.661C394.976 120.799 397.706 120.527 397.997 120.057C398.287 119.587 397.171 115.687 395.516 111.391C393.161 105.274 392.788 103.4 393.797 102.76C394.507 102.31 394.637 102.023 394.087 102.122C393.537 102.221 389.947 102.462 386.11 102.658ZM363.4 104.594C364.121 104.883 364.984 104.847 365.316 104.515C365.648 104.183 365.058 103.947 364.004 103.99C362.839 104.038 362.602 104.275 363.4 104.594ZM86.6661 109.494C86.7141 110.659 86.9511 110.896 87.2701 110.099C87.5591 109.377 87.5231 108.514 87.1911 108.182C86.8591 107.85 86.6231 108.44 86.6661 109.494ZM50.6661 116.494C50.7141 117.659 50.9511 117.896 51.2701 117.099C51.5591 116.377 51.5231 115.514 51.1911 115.182C50.8591 114.85 50.6231 115.44 50.6661 116.494ZM95.5111 135.661L93.0871 138.411L95.8371 135.987C97.3501 134.653 98.5871 133.416 98.5871 133.237C98.5871 132.452 97.7771 133.091 95.5111 135.661ZM201.587 144.411C201.587 153.901 203.194 157.75 203.78 149.661C204.062 145.763 204.336 145.383 207.087 145.073C210.952 144.636 212.587 143.236 212.587 140.36C212.587 136.928 209.97 134.911 205.516 134.911H201.587V144.411ZM247.087 136.161C245.59 140.445 242.59 153.247 242.989 153.647C243.254 153.911 244.148 152.504 244.977 150.519C247.09 145.464 250.638 145.79 251.952 151.161C252.322 152.673 253.115 153.911 253.713 153.911C254.311 153.911 254.569 153.306 254.285 152.566C254.001 151.827 252.779 147.552 251.568 143.066C249.502 135.409 248.103 133.253 247.087 136.161ZM287.066 136.106C286.753 136.921 286.63 141.148 286.792 145.499L287.087 153.411L292.087 153.544C294.837 153.617 295.737 153.47 294.087 153.217C292.437 152.964 290.66 152.343 290.139 151.836C289.618 151.33 289.114 147.523 289.021 143.378C288.851 135.881 288.151 133.278 287.066 136.106ZM329.448 136.094C329.226 136.818 329.201 141.124 329.392 145.661L329.739 153.911L334.413 153.779C338.856 153.654 338.914 153.617 335.587 153.029L332.087 152.411L331.79 144.414C331.515 136.99 330.395 133.009 329.448 136.094ZM371.254 135.578C370.887 135.944 370.587 140.219 370.587 145.078V153.911L375.837 153.769C380.975 153.63 381.002 153.614 377.087 153.019C373.314 152.446 373.069 152.198 372.777 148.661C372.471 144.972 372.524 144.911 376.027 144.911C377.985 144.911 379.587 144.429 379.587 143.839C379.587 143.25 378.575 142.85 377.337 142.95C373.151 143.289 372.587 142.928 372.587 139.911C372.587 137.159 372.871 136.911 376.028 136.911C377.921 136.911 379.747 136.461 380.087 135.911C380.777 134.795 372.354 134.477 371.254 135.578ZM412.587 135.841C412.587 136.353 413.599 136.916 414.837 137.091C417.305 137.442 417.306 137.446 417.472 147.161C417.536 150.917 418.03 153.911 418.587 153.911C419.175 153.911 419.587 150.411 419.587 145.411C419.587 137.578 419.744 136.911 421.587 136.911C422.687 136.911 423.587 136.461 423.587 135.911C423.587 135.361 421.112 134.911 418.087 134.911C415.062 134.911 412.587 135.33 412.587 135.841ZM456.37 137.489C454.95 140.604 455.986 142.638 460.176 144.96C461.777 145.847 463.248 147.407 463.446 148.426C463.929 150.922 460.859 152.994 457.675 152.321C455.185 151.795 455.16 151.834 457.028 153.343C459.47 155.315 460.571 155.311 463.421 153.315C465.128 152.119 465.623 150.929 465.393 148.565C465.148 146.038 464.331 145.042 461.282 143.552C458.391 142.14 457.55 141.179 457.782 139.552C458.011 137.944 458.901 137.333 461.356 137.096C465.34 136.713 464.64 134.911 460.507 134.911C458.293 134.911 457.247 135.563 456.37 137.489ZM210.278 138.547C211.19 140.924 209.287 143.363 206.236 143.727C203.807 144.018 203.587 143.748 203.587 140.477C203.587 137.173 203.81 136.911 206.618 136.911C208.502 136.911 209.887 137.53 210.278 138.547ZM250.044 142.666C250.526 144.263 250.254 145.101 249.113 145.539C246.809 146.424 246.299 145.501 247.093 141.884C247.821 138.567 248.891 138.851 250.044 142.666ZM88.9921 142.161L87.0871 144.411L89.3371 142.506C91.4511 140.716 92.0421 139.911 91.2421 139.911C91.0521 139.911 90.0401 140.923 88.9921 142.161ZM67.2001 147.094C67.4891 147.561 68.1441 147.685 68.6561 147.368C69.9641 146.56 69.8171 146.244 68.1311 146.244C67.3301 146.244 66.9111 146.627 67.2001 147.094ZM79.5871 147.911C79.5871 148.461 80.0371 148.911 80.5871 148.911C81.1371 148.911 81.5871 148.461 81.5871 147.911C81.5871 147.361 81.1371 146.911 80.5871 146.911C80.0371 146.911 79.5871 147.361 79.5871 147.911Z" fill="white"/>
<path fill-rule="evenodd" clip-rule="evenodd" d="M73.8312 0.967796C66.9102 1.8168 56.8312 4.3078 53.5992 5.9678C52.7672 6.3948 50.5542 7.3158 48.6802 8.0138C42.8442 10.1888 31.0362 18.4818 24.7732 24.8038C13.7632 35.9168 5.65218 50.3778 1.92718 65.5348C-0.540816 75.5758 -0.303817 95.0158 2.41018 105.109C5.16918 115.374 11.7942 129.098 16.6892 134.688C18.0082 136.195 20.3962 138.998 21.9952 140.919C25.3812 144.984 25.3592 144.912 19.9442 134.411C7.48818 110.254 6.73118 84.7968 17.7202 59.6388C19.3472 55.9148 20.3632 52.3578 19.9782 51.7348C19.5672 51.0698 19.7232 50.8768 20.3542 51.2668C20.9772 51.6518 23.0012 49.3448 25.1622 45.7878C29.3242 38.9348 39.8032 27.9218 46.6202 23.2338C54.0202 18.1448 64.5662 13.1948 74.0872 10.3418C82.0442 7.95679 84.7092 7.6488 97.0872 7.6808C105.986 7.7038 113.182 8.25179 116.837 9.18279C119.999 9.98879 122.587 10.4578 122.587 10.2248C122.587 9.25779 110.981 4.7718 103.806 2.9648C94.1692 0.537795 83.2582 -0.189204 73.8312 0.967796ZM79.0872 21.3398C72.6932 22.6058 69.5472 23.5718 61.1982 26.8368C56.5912 28.6388 58.5662 28.8788 65.5972 27.3718C89.5752 22.2328 115.863 30.3858 134.13 48.6258C141.421 55.9058 149.083 67.5228 152.149 75.9438C159.15 95.1798 157.948 118.997 149.024 137.855C146.146 143.936 145.888 144.949 147.61 143.39C153.242 138.293 160.217 125.113 164.268 111.911C166.608 104.286 166.564 84.7568 164.188 75.9108C157.304 50.2898 135.977 28.7928 111.087 22.3858C102.473 20.1688 87.4792 19.6788 79.0872 21.3398ZM316.087 38.9108C315.329 40.1378 316.323 41.9108 317.768 41.9108C318.398 41.9108 318.271 41.2218 317.459 40.2238C316.254 38.7408 316.306 38.6188 317.889 39.2118C318.971 39.6178 319.447 39.4928 319.08 38.8998C318.294 37.6278 316.876 37.6338 316.087 38.9108ZM334.087 38.9108C334.427 39.4608 334.903 39.9108 335.146 39.9108C335.389 39.9108 335.587 39.4608 335.587 38.9108C335.587 38.3608 335.11 37.9108 334.528 37.9108C333.946 37.9108 333.747 38.3608 334.087 38.9108ZM219.892 61.8938C204.473 64.2238 194.618 75.3628 194.597 90.4828C194.583 100.108 196.862 106.283 202.504 111.915C208.457 117.857 214.658 119.809 228.228 120.012C233.805 120.096 238.818 119.886 239.368 119.546C239.918 119.206 247.055 108.012 255.227 94.6698L270.087 70.4108L270.354 95.1608C270.52 110.44 270.998 119.946 271.604 120.002C272.145 120.052 273.937 120.093 275.587 120.093C277.237 120.093 279.037 120.052 279.587 120.002C280.228 119.944 280.587 109.684 280.587 91.4108V62.9108H271.269H261.951L251.133 80.6608C245.183 90.4238 238.464 101.445 236.201 105.152C232.196 111.715 231.978 111.894 227.963 111.902C222.786 111.913 215.882 109.522 212.734 106.627C203.474 98.1138 204.881 80.7518 215.422 73.4238C219.372 70.6788 220.44 70.4198 227.422 70.5128C231.638 70.5698 235.987 70.7948 237.087 71.0128C238.855 71.3648 239.071 70.9118 238.945 67.1018C238.867 64.7328 238.642 62.6508 238.445 62.4758C237.473 61.6118 224.459 61.2038 219.892 61.8938ZM463.587 61.9108C463.587 62.4608 464.037 62.9108 464.587 62.9108C465.137 62.9108 465.587 62.4608 465.587 61.9108C465.587 61.3608 465.137 60.9108 464.587 60.9108C464.037 60.9108 463.587 61.3608 463.587 61.9108ZM435.087 64.9748C431.237 66.5458 426.737 67.8528 425.087 67.8798C422.167 67.9268 421.973 68.2478 417.791 79.9578C415.428 86.5738 413.227 92.6848 412.9 93.5368C412.397 94.8468 413.183 95.0348 417.977 94.7488L423.649 94.4108L427.465 83.1478C431.12 72.3588 432.149 70.0768 432.951 70.9938C433.152 71.2238 434.94 76.1358 436.925 81.9108C440.865 93.3728 440.248 92.8698 448.215 91.1038L451.343 90.4108L446.506 77.4108C443.845 70.2608 441.861 63.8488 442.096 63.1608C442.332 62.4738 442.426 61.9578 442.306 62.0148C442.185 62.0718 438.937 63.4038 435.087 64.9748ZM285.822 91.5648L286.087 120.219L290.587 120.22H295.087L295.587 96.3158C296.169 68.4988 294.634 68.1248 308.07 99.3598C312.79 110.332 316.824 119.481 317.034 119.691C317.244 119.901 321.391 120.082 326.251 120.093L335.087 120.114L335.352 91.4598L335.618 62.8048L330.352 63.1078L325.087 63.4108V86.1618C325.087 98.6748 324.697 108.782 324.22 108.623C323.743 108.463 318.813 98.1128 313.265 85.6218L303.178 62.9108H294.367H285.556L285.822 91.5648ZM350.502 91.1678C344.68 106.702 340.18 119.663 340.502 119.972C340.824 120.28 343.607 120.355 346.687 120.138L352.287 119.743L354.613 112.327C355.893 108.248 357.493 104.911 358.169 104.911C358.895 104.911 359.191 104.114 358.892 102.968C358.38 101.012 368.396 69.3868 369.255 70.2458C369.508 70.4988 371.882 76.9398 374.53 84.5578C377.951 94.4028 379.842 98.5098 381.065 98.7538C383.824 99.3028 389.587 97.9218 389.587 96.7118C389.587 96.1028 386.821 88.2478 383.44 79.2578L377.292 62.9108L369.19 62.9178L361.087 62.9258L350.502 91.1678ZM462.666 96.4938C462.714 97.6588 462.951 97.8958 463.27 97.0988C463.559 96.3768 463.523 95.5138 463.191 95.1818C462.859 94.8498 462.623 95.4398 462.666 96.4938ZM448.932 98.6488L442.776 99.0018L446.52 109.605L450.264 120.209L455.929 120.459C459.044 120.597 461.755 120.418 461.954 120.061C462.152 119.703 460.612 114.922 458.531 109.435C456.451 103.949 454.963 99.1108 455.227 98.6848C455.49 98.2588 455.566 97.9978 455.396 98.1038C455.226 98.2098 452.317 98.4548 448.932 98.6488ZM407.075 109.531C405.432 114.271 404.087 118.643 404.087 119.246C404.087 120.678 413.386 120.889 414.449 119.48C415.442 118.166 420.587 103.515 420.587 102.004C420.587 101.352 418.464 100.911 415.325 100.911H410.063L407.075 109.531ZM386.11 102.658C382.273 102.853 379.618 103.327 380.21 103.712C380.803 104.096 382.405 107.786 383.77 111.911L386.253 119.41L391.17 120.141C398.849 121.282 398.978 121.04 395.61 111.811C393.971 107.322 392.873 103.258 393.168 102.78C393.463 102.302 393.566 101.999 393.396 102.107C393.226 102.215 389.947 102.462 386.11 102.658ZM94.9922 136.161L93.0872 138.411L95.3372 136.506C97.4512 134.716 98.0422 133.911 97.2422 133.911C97.0522 133.911 96.0402 134.923 94.9922 136.161ZM201.587 144.411C201.587 150.078 201.991 153.911 202.587 153.911C203.137 153.911 203.587 151.886 203.587 149.411C203.587 144.944 203.612 144.911 207.052 144.911C209.454 144.911 210.834 144.318 211.552 142.977C214.03 138.346 211.46 134.911 205.516 134.911H201.587V144.411ZM246.58 138.661C243.769 148.231 242.576 153.234 243.004 153.661C243.26 153.918 244.162 152.471 245.008 150.447C247.013 145.647 250.548 145.757 251.948 150.661C252.459 152.448 253.309 153.911 253.839 153.911C254.368 153.911 254.502 153.133 254.138 152.182C253.392 150.238 249.587 136.232 249.587 135.429C249.587 135.144 249.158 134.911 248.634 134.911C248.11 134.911 247.185 136.599 246.58 138.661ZM287.224 136.148C286.611 137.414 286.843 150.67 287.53 153.661C287.561 153.798 289.724 153.835 292.337 153.743C296.683 153.589 296.768 153.541 293.341 153.183C289.009 152.729 288.735 152.084 288.331 141.411C288.155 136.758 287.784 134.993 287.224 136.148ZM329.587 144.352V153.911L334.337 153.743C338.689 153.589 338.773 153.542 335.337 153.183L331.587 152.79V144.41C331.587 139.8 331.137 135.751 330.587 135.411C329.947 135.015 329.587 138.234 329.587 144.352ZM371.254 135.578C370.887 135.944 370.587 140.219 370.587 145.078V153.911L375.337 153.779C379.806 153.655 379.88 153.611 376.587 153.029C373.396 152.466 373.06 152.08 372.777 148.661C372.471 144.972 372.524 144.911 376.027 144.911C377.985 144.911 379.587 144.429 379.587 143.839C379.587 143.25 378.575 142.85 377.337 142.95C373.151 143.289 372.587 142.928 372.587 139.911C372.587 137.159 372.871 136.911 376.028 136.911C377.921 136.911 379.747 136.461 380.087 135.911C380.777 134.795 372.354 134.477 371.254 135.578ZM412.587 135.911C412.587 136.461 413.712 136.911 415.087 136.911C417.558 136.911 417.587 137.011 417.587 145.411C417.587 150.411 417.999 153.911 418.587 153.911C419.175 153.911 419.587 150.411 419.587 145.411C419.587 137.578 419.744 136.911 421.587 136.911C422.687 136.911 423.587 136.461 423.587 135.911C423.587 135.361 421.112 134.911 418.087 134.911C415.062 134.911 412.587 135.361 412.587 135.911ZM457.158 136.482C454.14 139.5 455.488 142.682 460.935 145.397C465.704 147.775 463.483 153.424 458.178 152.408C455.246 151.847 455.187 151.897 457.035 153.369C460.647 156.247 465.848 153.213 465.388 148.496C465.149 146.048 464.302 145.027 461.282 143.552C458.391 142.14 457.55 141.179 457.782 139.552C458.011 137.944 458.901 137.333 461.356 137.096C463.154 136.923 464.365 136.361 464.047 135.846C463.132 134.366 458.883 134.758 457.158 136.482ZM210.122 137.968C210.481 138.549 210.499 140.124 210.162 141.468C209.683 143.375 208.895 143.911 206.568 143.911C203.828 143.911 203.587 143.628 203.587 140.411C203.587 137.204 203.834 136.911 206.528 136.911C208.146 136.911 209.763 137.387 210.122 137.968ZM250.125 143.161C250.704 145.506 250.493 145.911 248.695 145.911C246.491 145.911 246.201 144.954 247.235 141.095C247.958 138.395 249.16 139.255 250.125 143.161ZM80.0872 147.911C79.7472 148.461 79.9462 148.911 80.5282 148.911C81.1102 148.911 81.5872 148.461 81.5872 147.911C81.5872 147.361 81.3892 146.911 81.1462 146.911C80.9032 146.911 80.4272 147.361 80.0872 147.911Z" fill="white"/>
<path fill-rule="evenodd" clip-rule="evenodd" d="M220.087 61.8958C213.138 62.9458 208.509 65.0828 203.625 69.4958C197.619 74.9218 195.342 79.9628 194.8 89.0378C194.015 102.18 198.681 111.303 208.938 116.678C213.75 119.199 214.931 119.377 226.991 119.393L239.896 119.411L254.991 94.9388L270.087 70.4678L270.354 95.1888L270.622 119.911H275.62H280.618L280.353 91.6608L280.087 63.4108L271.077 63.1268L262.067 62.8418L247.077 87.3768L232.087 111.911H227.305C214.996 111.911 206.631 103.414 206.631 90.9108C206.631 81.1598 212.069 73.2598 220.368 70.9548C225.067 69.6498 232.682 69.6168 236.022 70.8858C238.535 71.8418 238.587 71.7728 238.587 67.4448C238.587 65.0158 238.25 62.8368 237.837 62.6008C236.157 61.6428 224.759 61.1898 220.087 61.8958ZM285.587 91.4108V119.911H290.569H295.551L295.819 95.6678L296.087 71.4248L306.505 95.6678L316.922 119.911H326.255H335.587V91.3588V62.8058L330.337 63.1088L325.087 63.4108L325.02 86.1448C324.983 98.6478 324.737 109.094 324.473 109.358C324.209 109.623 319.312 99.2798 313.592 86.3748L303.192 62.9108H294.389H285.587V91.4108ZM350.482 91.4058C344.649 107.06 339.998 119.99 340.146 120.139C340.293 120.289 343.085 120.262 346.35 120.08L352.286 119.749L354.612 112.33C355.892 108.249 357.31 104.911 357.763 104.911C358.216 104.911 358.587 103.899 358.587 102.662C358.587 101.425 360.896 93.4858 363.717 85.0188C367.749 72.9238 369.058 70.0008 369.827 71.3758C370.366 72.3378 372.709 78.8148 375.034 85.7678C378.104 94.9478 379.745 98.5048 381.024 98.7538C383.76 99.2848 389.587 97.9398 389.587 96.7768C389.587 96.2028 386.805 88.3478 383.404 79.3218L377.221 62.9108L369.154 62.9278L361.087 62.9438L350.482 91.4058ZM434.087 65.4298C430.787 66.7378 426.696 67.8308 424.995 67.8588C422.237 67.9048 421.768 68.3688 420.646 72.1608C419.955 74.4988 417.859 80.3938 415.988 85.2608C414.117 90.1288 412.587 94.3148 412.587 94.5628C412.587 94.8108 415.032 94.9148 418.02 94.7938L423.454 94.5738L426.565 85.4928C430.805 73.1178 431.711 70.9108 432.553 70.9108C432.951 70.9108 434.944 75.7798 436.981 81.7318L440.685 92.5528L446.055 91.5788L451.424 90.6058L448.393 82.5088C446.725 78.0548 444.399 71.8238 443.224 68.6618C442.049 65.4998 440.862 62.9438 440.587 62.9818C440.312 63.0208 437.387 64.1218 434.087 65.4298ZM445.137 105.614C446.509 109.352 448.291 114.211 449.097 116.411L450.561 120.411H456.074C459.496 120.411 461.587 119.984 461.587 119.284C461.587 118.665 460.064 113.94 458.202 108.784L454.818 99.4108L448.729 99.1138L442.641 98.8168L445.137 105.614ZM407.192 109.164C405.599 113.7 404.079 117.998 403.814 118.715C403.445 119.712 404.691 119.947 409.123 119.715L414.914 119.411L417.75 110.956C419.311 106.306 420.587 102.144 420.587 101.706C420.587 101.269 418.224 100.912 415.337 100.914L410.087 100.916L407.192 109.164ZM383.493 111.161L386.261 119.411L392.416 119.709L398.572 120.006L395.579 111.89C393.934 107.427 392.587 103.58 392.587 103.343C392.587 103.105 389.918 102.911 386.656 102.911H380.725L383.493 111.161ZM202.337 135.485C201.189 136.648 201.423 153.911 202.587 153.911C203.137 153.911 203.587 151.886 203.587 149.411C203.587 145.102 203.711 144.911 206.516 144.911C211.27 144.911 214.037 140.747 211.716 137.085C210.759 135.576 203.474 134.332 202.337 135.485ZM246.654 138.661C246.098 140.724 244.96 144.661 244.126 147.411C242.333 153.318 242.251 154.237 243.587 153.411C244.137 153.071 244.587 151.952 244.587 150.923C244.587 149.895 245.241 148.4 246.039 147.601C246.838 146.803 247.245 145.903 246.944 145.602C246.169 144.826 247.581 138.911 248.541 138.911C249.857 138.911 250.727 145.206 249.515 145.956C248.788 146.405 248.921 146.825 249.909 147.204C250.728 147.519 251.702 149.156 252.072 150.843C252.443 152.531 253.208 153.911 253.773 153.911C254.339 153.911 254.502 153.133 254.138 152.182C253.392 150.238 249.587 136.232 249.587 135.429C249.587 135.144 249.154 134.911 248.626 134.911C248.097 134.911 247.209 136.599 246.654 138.661ZM287.776 144.161L287.587 153.911L292.337 153.769L297.087 153.627L293.087 153.019L289.087 152.411L288.526 143.411L287.965 134.411L287.776 144.161ZM329.776 144.161L329.587 153.911L333.837 153.779L338.087 153.648L334.587 153.029L331.087 152.411L330.526 143.411L329.965 134.411L329.776 144.161ZM371.254 135.578C370.887 135.944 370.587 140.219 370.587 145.078V153.911L375.337 153.779C379.806 153.655 379.88 153.611 376.587 153.029C373.396 152.466 373.06 152.08 372.777 148.661C372.47 144.961 372.515 144.911 376.086 144.911C378.398 144.911 379.467 144.525 379.045 143.843C378.682 143.255 377.755 143.016 376.986 143.311C374.505 144.263 372.587 142.78 372.587 139.911C372.587 137.042 374.505 135.559 376.986 136.511C377.755 136.806 378.682 136.567 379.045 135.979C379.772 134.802 372.408 134.423 371.254 135.578ZM413.587 135.911C413.587 136.461 414.487 136.911 415.587 136.911C417.43 136.911 417.587 137.578 417.587 145.411C417.587 150.411 417.999 153.911 418.587 153.911C419.175 153.911 419.587 150.411 419.587 145.411C419.587 137.578 419.744 136.911 421.587 136.911C422.687 136.911 423.587 136.461 423.587 135.911C423.587 135.361 421.337 134.911 418.587 134.911C415.837 134.911 413.587 135.361 413.587 135.911ZM457.158 136.482C454.514 139.127 455.304 141.707 459.587 144.411C463.738 147.031 464.689 149.751 462.183 151.832C461.35 152.523 459.662 152.717 458.034 152.308C456.091 151.821 455.496 151.954 455.997 152.765C457.118 154.579 462.107 154.099 464.012 151.993C466.722 148.999 465.651 145.686 461.282 143.552C458.391 142.14 457.55 141.179 457.782 139.552C458.011 137.944 458.901 137.333 461.356 137.096C463.154 136.923 464.365 136.361 464.047 135.846C463.132 134.366 458.883 134.758 457.158 136.482ZM209.964 137.95C210.446 138.398 210.55 139.923 210.195 141.338C209.682 143.382 208.936 143.911 206.568 143.911C203.856 143.911 203.587 143.61 203.587 140.578C203.587 138.744 203.892 136.939 204.265 136.567C205.017 135.814 208.6 136.684 209.964 137.95Z" fill="white"/>
<path fill-rule="evenodd" clip-rule="evenodd" d="M221.087 62.0118C213.288 62.7938 208.744 64.8028 203.184 69.9278C196.807 75.8068 194.25 82.8868 194.82 93.0948C195.348 102.557 198.363 108.994 204.436 113.626C210.451 118.214 217.127 119.911 229.16 119.911H239.369L254.728 95.1608L270.087 70.4108L270.354 95.1608L270.622 119.911H275.62H280.618L280.353 91.6608L280.087 63.4108L271.087 63.1288L262.087 62.8468L247.173 87.3788L232.259 111.911H227.391C218.784 111.911 210.99 107.138 208.005 100.039C207.225 98.1838 206.587 94.0768 206.587 90.9108C206.587 81.3578 210.667 74.8628 218.805 71.4638C223.01 69.7068 232.146 69.4128 236.077 70.9068C238.696 71.9028 238.696 71.9028 238.392 67.1568L238.087 62.4108L232.587 61.9108C229.562 61.6358 224.387 61.6818 221.087 62.0118ZM285.587 91.4108V119.911H290.587H295.587V95.7108C295.587 82.4008 295.948 71.9378 296.39 72.4608C296.831 72.9828 301.665 83.8738 307.132 96.6608L317.071 119.911H326.345H335.618L335.353 91.6608L335.087 63.4108L330.337 63.1058L325.587 62.8008V86.3558C325.587 99.3108 325.225 109.911 324.782 109.911C324.124 109.911 307.508 74.0298 304.144 65.3458C303.244 63.0218 302.8 62.9108 294.394 62.9108H285.587V91.4108ZM361.12 63.8568C360.26 65.2488 340.596 118.271 340.591 119.211C340.589 119.651 343.167 119.876 346.321 119.711L352.055 119.411L360.273 94.9108C364.794 81.4358 368.851 70.5328 369.29 70.6828C369.728 70.8328 372.175 77.1328 374.728 84.6828L379.369 98.4108L384.228 98.0618C386.9 97.8698 389.257 97.5498 389.464 97.3508C389.672 97.1518 387.021 89.3218 383.572 79.9498L377.303 62.9108H369.504C365.215 62.9108 361.442 63.3368 361.12 63.8568ZM435.587 65.4098C434.212 66.1948 431.007 67.1298 428.465 67.4858C425.923 67.8428 423.404 68.4218 422.868 68.7728C421.824 69.4558 412.448 94.1048 413.015 94.6728C413.201 94.8588 415.615 94.7108 418.379 94.3438C424.001 93.5978 423.135 94.9388 429.149 77.6608C430.633 73.3978 432.142 69.9108 432.504 69.9108C432.866 69.9108 434.61 74.2988 436.381 79.6608C438.152 85.0228 439.985 90.0108 440.454 90.7428C441.45 92.2998 450.587 91.3528 450.587 89.6938C450.587 89.1488 448.5 83.1248 445.95 76.3068C441.047 63.1998 440.487 62.6108 435.587 65.4098ZM443.653 100.161C443.689 100.849 445.163 105.461 446.928 110.411L450.137 119.411L455.862 119.711C459.419 119.897 461.587 119.609 461.587 118.95C461.587 118.367 459.953 113.619 457.955 108.4L454.323 98.9108H448.955C445.292 98.9108 443.608 99.3078 443.653 100.161ZM411.951 101.602C409.899 102.004 409.398 103.055 403.82 118.661C403.497 119.563 404.896 119.911 408.847 119.911H414.32L417.454 111.309C419.177 106.578 420.587 102.303 420.587 101.809C420.587 100.915 416.018 100.805 411.951 101.602ZM382.706 103.816C381.563 104.54 381.763 105.959 383.862 112.051L386.399 119.411L392.383 119.706L398.367 120.001L395.262 111.456L392.158 102.911L388.123 102.926C385.903 102.935 383.466 103.335 382.706 103.816ZM202.254 135.578C201.162 136.669 201.476 153.911 202.587 153.911C203.137 153.911 203.587 151.886 203.587 149.411C203.587 145.132 203.727 144.911 206.432 144.911C209.492 144.911 212.587 142.26 212.587 139.639C212.587 136.444 204.547 133.284 202.254 135.578ZM246.19 140.561C245.311 143.779 244.141 147.793 243.59 149.482C242.328 153.346 242.327 154.189 243.587 153.411C244.137 153.071 244.587 151.952 244.587 150.923C244.587 149.895 245.15 148.459 245.837 147.732C246.525 147.006 247.143 144.673 247.211 142.548C247.279 140.423 247.951 138.304 248.703 137.839C249.728 137.206 249.784 136.708 248.929 135.853C248.073 134.997 247.387 136.177 246.19 140.561ZM287.776 144.161L287.587 153.911L291.837 153.779L296.087 153.648L292.587 153.029L289.087 152.411L288.526 143.411L287.965 134.411L287.776 144.161ZM371.587 144.411V153.911L375.837 153.743L380.087 153.575L376.337 153.183C372.705 152.803 372.587 152.667 372.587 148.851C372.587 144.988 372.661 144.908 376.337 144.779L380.087 144.648L376.587 144.029C373.409 143.468 373.059 143.072 372.78 139.725C372.481 136.126 372.564 136.029 376.28 135.643L380.087 135.247L375.837 135.079L371.587 134.911V144.411ZM415.337 135.617C417.458 136.025 417.598 136.575 417.776 145.231L417.965 154.411L418.526 145.452C419.058 136.957 419.216 136.458 421.587 135.802C423.28 135.334 422.311 135.122 418.587 135.147C415.562 135.167 414.099 135.378 415.337 135.617ZM457.158 136.482C454.339 139.302 455.917 143.133 460.566 144.754C466.092 146.68 463.706 153.911 458.016 152.483C456.331 152.06 455.645 152.196 456.062 152.871C457.341 154.939 462.469 154.021 464.174 151.419C466.256 148.241 465.513 146.39 461.111 143.793C455.515 140.491 456.677 135.076 462.647 136.637C464.204 137.044 464.679 136.869 464.184 136.069C463.153 134.4 458.996 134.645 457.158 136.482ZM209.417 136.785C210.173 137.264 210.605 138.877 210.417 140.52C210.138 142.968 209.589 143.459 206.837 143.724C203.652 144.031 203.587 143.956 203.587 139.974C203.587 136.423 203.87 135.913 205.837 135.926C207.075 135.935 208.686 136.321 209.417 136.785ZM329.773 144.661L329.587 153.911L333.837 153.779L338.087 153.648L334.587 153.029L331.087 152.411L330.523 143.911L329.96 135.411L329.773 144.661ZM249.933 142.834C250.018 145.07 250.404 146.902 250.792 146.905C251.179 146.908 251.792 148.486 252.153 150.411C252.514 152.336 253.175 153.911 253.621 153.911C254.295 153.911 250.986 140.098 250.07 139.09C249.909 138.913 249.848 140.598 249.933 142.834Z" fill="white"/>
<path fill-rule="evenodd" clip-rule="evenodd" d="M216.087 62.8457C208.586 64.6717 201.231 70.6158 197.446 77.9108C195.536 81.5908 195.111 83.9587 195.109 90.9107C195.106 100.697 197.14 106.335 202.581 111.621C208.617 117.486 213.689 119.145 227.243 119.687L239.4 120.174L241.148 116.792C242.11 114.933 243.68 112.286 244.636 110.911C250.507 102.475 268.658 71.8338 268.212 71.1128C267.917 70.6348 268.33 70.2438 269.131 70.2438C270.367 70.2438 270.587 74.0038 270.587 95.0778V119.911H275.087H279.587V91.4107V62.9108H271.075H262.562L259.325 68.1848C257.544 71.0858 255.542 74.3488 254.875 75.4348C254.209 76.5218 248.887 85.1738 243.05 94.6608L232.436 111.911H227.661C216.021 111.911 208.829 106.211 206.536 95.1678C203.133 78.7728 217.093 66.4618 234.837 70.2098L238.587 71.0018V67.0728C238.587 63.8438 238.186 63.0367 236.337 62.5407C233.316 61.7317 219.83 61.9347 216.087 62.8457ZM285.587 91.4107V119.911H290.57H295.552L295.82 95.3828L296.087 70.8558L300.814 81.6327C303.414 87.5607 308.205 98.4858 311.46 105.911L317.378 119.411L326.424 119.698L335.47 119.985L335.502 92.9608C335.52 78.0968 335.273 65.2558 334.954 64.4238C334.557 63.3908 332.979 62.9108 329.98 62.9108H325.587V86.9107C325.587 100.111 325.25 110.911 324.837 110.911C324.18 110.91 310.588 81.2218 305.094 67.7848L303.101 62.9108H294.344H285.587V91.4107ZM360.532 65.6188C359.962 67.1548 357.529 73.5857 355.127 79.9107C346.453 102.746 340.587 118.62 340.587 119.259C340.587 119.618 343.014 119.911 345.98 119.911C350.179 119.911 351.53 119.524 352.083 118.161C353.089 115.679 368.572 69.5048 368.58 68.9608C368.61 66.9968 370.807 71.8727 373.065 78.9107C374.564 83.5857 376.681 89.9317 377.769 93.0117L379.746 98.6128L383.417 97.9417C385.435 97.5727 387.526 97.2237 388.062 97.1657C388.598 97.1077 389.219 96.5147 389.442 95.8467C389.672 95.1557 389.364 94.9308 388.728 95.3238C388.071 95.7298 387.793 95.4778 388.053 94.7128C388.297 93.9968 385.908 86.6607 382.745 78.4107L376.993 63.4108L369.281 63.1188C361.648 62.8298 361.559 62.8548 360.532 65.6188ZM433.729 66.4277C430.232 67.7317 426.199 68.9368 424.766 69.1048C422.418 69.3808 421.729 70.5798 417.79 81.2437C415.386 87.7517 413.661 93.3178 413.957 93.6138C414.911 94.5688 423.692 92.8097 424.059 91.5907C424.505 90.1137 429.397 76.3578 430.792 72.6608C431.363 71.1478 432.136 69.9108 432.511 69.9108C432.885 69.9108 434.023 72.2728 435.039 75.1608C436.054 78.0488 437.751 82.7727 438.808 85.6607L440.731 90.9107H445.659C448.477 90.9107 450.587 90.4547 450.587 89.8457C450.587 89.2607 449.719 86.6727 448.659 84.0957C447.598 81.5187 445.472 75.9238 443.933 71.6608C442.394 67.3978 440.899 63.9437 440.611 63.9837C440.323 64.0247 437.226 65.1237 433.729 66.4277ZM446.757 99.6397C444.114 99.9647 443.564 100.397 444.093 101.73C444.459 102.655 445.654 105.886 446.748 108.911C451.085 120.904 450.231 119.911 456.208 119.911C461.647 119.911 462.364 119.301 460.635 116.147C460.111 115.192 458.434 110.924 456.908 106.661C453.936 98.3568 454.429 98.6967 446.757 99.6397ZM415.379 101.909C412.79 102.23 410.465 102.7 410.214 102.952C409.962 103.205 408.639 106.336 407.274 109.911C405.908 113.486 404.472 117.198 404.082 118.161C403.459 119.7 404.028 119.911 408.793 119.911H414.214L417.342 110.686C419.062 105.612 420.384 101.43 420.279 101.392C420.173 101.355 417.968 101.587 415.379 101.909ZM384.837 103.617C383.049 103.849 381.587 104.178 381.587 104.349C381.587 104.766 384.457 113.025 385.257 114.911C385.607 115.736 385.937 117.086 385.99 117.911C386.062 119.021 387.58 119.489 391.837 119.711C398.585 120.063 398.545 120.191 394.732 110.411C391.842 102.996 391.494 102.757 384.837 103.617ZM209.308 136.861C211.115 138.548 211.352 139.398 210.583 141.423C209.449 144.405 210.086 144.715 211.587 141.911C212.854 139.543 211.569 136.5 208.865 135.467C207.494 134.943 207.596 135.263 209.308 136.861ZM287.793 144.661L287.587 153.911L291.837 153.743L296.087 153.575L292.375 153.185L288.663 152.795L288.331 144.103L287.998 135.411L287.793 144.661ZM329.793 144.661L329.587 153.911L333.837 153.743L338.087 153.575L334.375 153.185L330.663 152.795L330.331 144.103L329.998 135.411L329.793 144.661ZM371.791 144.661C371.61 152.886 371.781 153.909 373.337 153.896C374.533 153.885 374.705 153.638 373.881 153.114C373.144 152.645 372.543 149.054 372.335 143.879L371.994 135.411L371.791 144.661ZM417.947 144.911C417.947 150.136 418.116 152.274 418.322 149.661C418.528 147.048 418.528 142.774 418.322 140.161C418.116 137.548 417.947 139.686 417.947 144.911ZM246.666 139.494C246.714 140.659 246.951 140.896 247.27 140.099C247.559 139.377 247.523 138.514 247.191 138.182C246.859 137.85 246.623 138.44 246.666 139.494ZM202.666 141.494C202.714 142.659 202.951 142.896 203.27 142.099C203.559 141.377 203.523 140.514 203.191 140.182C202.859 139.85 202.623 140.44 202.666 141.494ZM456.587 141.804C456.587 142.295 457.326 142.98 458.228 143.327C459.601 143.854 459.663 143.707 458.606 142.434C457.166 140.699 456.587 140.518 456.587 141.804ZM250.366 144.649C250.054 145.84 250.238 146.961 250.774 147.14C251.31 147.319 252.116 149.028 252.565 150.938C253.191 153.598 253.388 153.826 253.409 151.911C253.423 150.536 252.872 147.852 252.184 145.946C251.071 142.867 250.87 142.723 250.366 144.649ZM202.587 144.738C202.587 145.193 203.937 145.366 205.587 145.124C207.237 144.882 208.587 144.51 208.587 144.298C208.587 144.085 207.237 143.911 205.587 143.911C203.937 143.911 202.587 144.283 202.587 144.738ZM461.837 144.903C462.799 145.512 463.587 146.663 463.587 147.461C463.587 148.258 464.092 148.911 464.709 148.911C466.241 148.911 463.354 144.633 461.501 144.158C460.709 143.954 460.856 144.282 461.837 144.903ZM244.587 146.47C244.587 147.327 245.044 147.746 245.603 147.401C246.162 147.055 246.361 146.354 246.044 145.842C245.187 144.455 244.587 144.713 244.587 146.47ZM463.193 151.496C462.689 152.808 461.75 153.038 458.819 152.567C456.256 152.155 455.557 152.267 456.587 152.924C458.839 154.36 462.182 154.104 463.607 152.387C464.303 151.549 464.638 150.629 464.353 150.344C464.068 150.058 463.546 150.577 463.193 151.496ZM376.337 153.573C377.025 153.851 378.15 153.851 378.837 153.573C379.525 153.296 378.962 153.069 377.587 153.069C376.212 153.069 375.65 153.296 376.337 153.573Z" fill="white"/>
</svg>
