<svg width="126" height="112" viewBox="0 0 126 112" fill="none" xmlns="http://www.w3.org/2000/svg">
<path d="M122.6 111.799C121.989 111.628 121.492 111.233 121.226 110.702C120.966 110.171 120.971 110.154 121.395 109.942C121.599 109.839 121.786 109.776 121.808 109.805C121.831 109.828 121.893 109.976 121.95 110.136C122.091 110.519 122.482 110.931 122.81 111.045C123.539 111.296 124.382 110.999 124.71 110.376C124.88 110.039 124.886 109.376 124.71 109.051C124.461 108.576 124.196 108.388 123.064 107.885C122.001 107.417 121.673 107.148 121.401 106.525C121.231 106.142 121.226 105.388 121.39 105.017C121.729 104.274 122.425 103.874 123.392 103.874C123.969 103.874 124.377 103.988 124.705 104.24C124.942 104.428 125.316 104.868 125.316 104.971C125.316 105 125.157 105.125 124.965 105.245L124.62 105.468L124.467 105.262C124.128 104.794 123.811 104.622 123.296 104.622C122.753 104.622 122.38 104.874 122.216 105.36C122.063 105.805 122.21 106.308 122.589 106.622C122.696 106.714 123.172 106.959 123.641 107.171C124.886 107.731 125.259 107.999 125.536 108.554C125.785 109.051 125.825 109.834 125.627 110.399C125.395 111.051 124.869 111.553 124.196 111.765C123.777 111.896 123.008 111.913 122.6 111.799Z" fill="white"/>
<path d="M3.41467 107.874V104.04L4.81752 104.062C6.09027 104.085 6.243 104.097 6.52583 104.211C7.33474 104.531 7.79292 105.468 7.65151 106.502C7.52706 107.382 7.01231 107.988 6.23169 108.159C6.04502 108.199 5.04945 108.262 4.30842 108.279C4.28014 108.279 4.26317 109.051 4.26317 109.993V111.708H3.83892H3.41467V107.874ZM5.66602 107.165C6.10158 107.062 6.32219 106.902 6.44098 106.611C6.68422 105.988 6.39007 105.354 5.76219 105.159C5.60946 105.114 5.24177 105.062 4.95894 105.039L4.43287 105.005V106.125V107.251H4.87409C5.11167 107.251 5.46804 107.211 5.66602 107.165Z" fill="white"/>
<path d="M21.8779 110.896C22.0702 110.445 22.8395 108.674 23.5806 106.954C24.3216 105.228 24.9438 103.822 24.9608 103.822C24.9778 103.822 25.5604 105.125 26.2505 106.725C26.9406 108.319 27.7099 110.091 27.9588 110.668L28.4114 111.713L27.9249 111.696L27.4328 111.679L26.9519 110.525L26.4711 109.365H24.9664H23.4674L22.9866 110.525L22.5001 111.679L22.0137 111.696L21.5215 111.713L21.8779 110.896ZM25.436 107.411C25.204 106.868 25.0004 106.399 24.9834 106.371C24.9551 106.331 24.7345 106.822 24.1462 108.211L24.067 108.394H24.9664H25.8659L25.436 107.411Z" fill="white"/>
<path d="M43.5543 111.582C43.5374 111.508 43.5204 109.788 43.5204 107.754V104.051H43.9729H44.4255V107.451V110.851H45.8679H47.3103V111.279V111.708H45.4493H43.5883L43.5543 111.582Z" fill="white"/>
<path d="M62.7529 107.879V104.051H63.1772H63.6014V107.451V110.851H65.0439H66.4863V111.279V111.708H64.6196H62.7529V107.879Z" fill="white"/>
<path d="M81.9291 107.879V104.051H83.9089H85.8887V104.451V104.851H84.3332H82.7776L82.7889 105.954L82.8059 107.051L84.3501 107.068L85.8887 107.079V107.514V107.942L84.3501 107.931L82.8059 107.919L82.7889 109.382L82.7776 110.851H84.3332H85.8887V111.279V111.708H83.9089H81.9291V107.879Z" fill="white"/>
<path d="M103.141 108.308V104.908H102.067H100.992V104.48V104.051H103.566H106.14V104.48V104.908H105.065H103.99V108.308V111.708H103.566H103.141V108.308Z" fill="white"/>
<path d="M11.9845 96.8115C11.3453 96.7829 10.1121 96.6229 9.39372 96.4743C6.67287 95.9201 4.41021 94.7087 2.71321 92.9031C1.29905 91.4061 0.439237 89.429 0.0998372 86.9092C-0.0189526 86.035 -0.0359226 83.9494 0.0715539 83.1094C0.614593 78.8011 2.84332 75.4699 6.40701 73.63C9.77272 71.8929 13.8116 71.4929 19.1797 72.3786C19.6832 72.4586 20.1244 72.5443 20.1583 72.5672C20.1979 72.59 20.2375 72.8072 20.2488 73.0871C20.2602 73.35 20.3111 74.2699 20.362 75.127C20.4129 75.9898 20.4355 76.7041 20.4242 76.7212C20.4072 76.7384 19.8755 76.6184 19.242 76.4584C17.313 75.9727 16.1761 75.807 14.6997 75.807C11.1812 75.8127 8.53391 77.1098 6.88217 79.641C5.85266 81.2124 5.3379 83.1837 5.41144 85.2236C5.5076 87.9206 6.44095 89.9376 8.20582 91.2747C9.57474 92.3146 11.0172 92.7946 13.1724 92.9374C13.9643 92.9888 16.0007 92.8288 16.8322 92.646C16.9454 92.6231 17.1716 92.3489 17.8448 91.4061C18.3199 90.7375 19.027 89.7433 19.423 89.1948C20.1414 88.1948 22.0816 85.4693 23.3148 83.7379C23.6711 83.2351 24.0388 82.7209 24.1293 82.5952C25.1701 81.1438 27.6987 77.6069 30.1932 74.0985L31.4434 72.3443L35.5614 72.3386H39.6738V84.595V96.8515H37.1849H34.6959L34.6846 86.9663L34.6677 77.0755L34.3056 77.5783C34.102 77.8526 33.6777 78.4411 33.3553 78.8811C33.0329 79.3211 30.5836 82.7037 27.9023 86.3949C25.2267 90.0861 22.421 93.9488 21.6743 94.983L20.3167 96.8515L16.3458 96.84C14.1679 96.8343 12.2051 96.8229 11.9845 96.8115Z" fill="white"/>
<path d="M42.3551 96.1143C42.4399 95.5086 42.4456 91.5146 42.3664 87.2805C42.2023 78.8524 42.1175 75.9783 41.9478 73.0699L41.9082 72.3957H45.0307C46.7446 72.3957 48.1871 72.3843 48.2267 72.3671C48.2833 72.3443 48.453 72.5614 48.7528 73.0356C49.771 74.6355 52.0166 77.9896 54.1549 81.1095C56.129 83.9836 58.0806 86.8748 59.3024 88.7319C60.083 89.9089 60.5243 90.5375 60.5356 90.4689C60.5639 90.2861 60.1 74.1327 60.0378 73.2585C60.0095 72.8014 59.9925 72.4243 60.0038 72.4128C60.0152 72.3957 63.9522 72.3843 64.8459 72.3957C64.8855 72.3957 64.9025 73.687 64.9025 76.1555C64.9025 80.6981 65.0326 88.3433 65.1853 92.7145C65.2476 94.4801 65.2985 96.0114 65.2985 96.1143V96.3086H62.1251H58.9574L58.7028 95.9086C58.5614 95.6915 58.3464 95.3429 58.2163 95.1372C57.5998 94.1658 56.9549 93.223 55.2692 90.8346C53.5383 88.3947 52.933 87.5205 51.3492 85.2235C50.297 83.6979 49.3354 82.2808 47.8364 80.0352C47.2311 79.1267 46.722 78.3953 46.7107 78.4068C46.6428 78.4753 46.9992 91.0403 47.1689 94.5372C47.2141 95.48 47.2537 96.2629 47.2537 96.28C47.2537 96.2971 46.145 96.3143 44.7874 96.3143L42.3268 96.32L42.3551 96.1143Z" fill="white"/>
<path d="M67.2444 96.2571C67.2557 96.2228 67.663 95.3714 68.1438 94.3658C69.1507 92.2459 69.5693 91.3317 73.133 83.395C76.131 76.7211 76.7193 75.3955 77.4547 73.6241L77.9751 72.3671L81.1824 72.3842C82.9473 72.3899 84.401 72.4185 84.4237 72.4414C84.4406 72.4642 84.995 73.807 85.6625 75.424C86.3243 77.0411 87.054 78.8067 87.2746 79.3381C87.7158 80.378 90.646 87.1548 90.6686 87.1834C90.6743 87.1891 91.1607 87.1434 91.749 87.0805C93.8872 86.8462 100.981 86.1091 101.071 86.1091C101.116 86.1091 101.207 86.012 101.269 85.8977C101.45 85.532 105.534 76.424 105.97 75.4069C106.196 74.8812 106.371 74.4355 106.355 74.4241C106.338 74.407 105.959 74.4412 105.512 74.4927C104.346 74.6298 101.716 74.6298 100.851 74.4927C99.295 74.2412 98.1354 73.8127 97.0606 73.087C96.5742 72.7613 95.6634 71.8871 95.3297 71.4243C95.0582 71.0529 94.6113 70.3329 94.6056 70.2701C94.6 70.2472 94.8602 70.3215 95.1826 70.43C96.5572 70.8986 97.6546 71.0871 99.2724 71.1214C101.693 71.1786 103.577 70.8529 107.243 69.7387C107.927 69.5272 109.036 69.1958 109.703 68.9901C113.838 67.7331 116.157 67.4702 118.618 67.9673C120.332 68.3159 122.006 69.1558 123.562 70.4472C124.139 70.9272 125.502 72.2699 125.717 72.5785L125.825 72.7328L125.35 72.5385C123.743 71.8814 121.582 71.7328 118.782 72.0814C117.249 72.2757 113.946 72.887 113.946 72.9842C113.946 73.1556 118.545 84.0864 118.663 84.2121C118.686 84.2292 119.648 84.1492 120.807 84.0292C121.967 83.9093 122.985 83.8064 123.07 83.8007C123.223 83.795 123.262 83.8635 124.099 85.4806C124.575 86.4063 124.959 87.1776 124.942 87.1891C124.931 87.2005 123.851 87.2862 122.538 87.3719C121.226 87.4633 120.14 87.549 120.128 87.5605C120.111 87.5776 123.794 96.1485 123.879 96.2857C123.89 96.3028 122.634 96.32 121.084 96.32H118.273L117.854 95.1715C117.623 94.5372 117.074 93.1259 116.633 92.0231C116.191 90.926 115.643 89.5375 115.411 88.949L114.992 87.8747L114.681 87.9033C114.511 87.9205 112.373 88.069 109.93 88.229C107.486 88.389 105.455 88.5318 105.416 88.5547C105.353 88.589 102.859 94.8286 102.463 95.9428L102.327 96.32H99.4081L96.4836 96.3142L97.0776 95.0857C98.1976 92.743 99.9285 88.9604 99.9003 88.9261C99.8889 88.9147 98.5596 89.0004 96.9418 89.109C92.6201 89.4061 91.7038 89.4689 91.6868 89.4918C91.6755 89.5032 91.7886 89.7946 91.9413 90.1375C92.4844 91.3888 94.6 96.2857 94.6 96.3028C94.6 96.3142 93.3385 96.32 91.7943 96.3142L88.9942 96.3085L88.6096 95.2515C88.1288 93.9372 86.5619 89.9432 86.4827 89.8346C86.4714 89.8232 85.7303 89.8689 84.8366 89.9318C83.9372 89.9946 81.42 90.166 79.2422 90.3146C77.0643 90.4574 75.2825 90.5832 75.2768 90.5889C75.2599 90.6174 73.5572 94.9886 73.331 95.5714L73.0425 96.32H70.1293C68.0759 96.32 67.2274 96.2971 67.2444 96.2571ZM80.9674 88.0176C83.3149 87.7776 85.2608 87.5548 85.2891 87.5319C85.3117 87.509 85.2043 87.1205 85.0402 86.6691C84.8762 86.2234 84.6216 85.492 84.4746 85.052C84.3275 84.6121 84.0164 83.7778 83.7788 83.195C83.5469 82.6122 82.8681 80.938 82.2798 79.4695C81.222 76.8525 81.0862 76.5268 81.0806 76.6583C81.0806 76.6982 80.8656 77.2354 80.6054 77.8582C78.4276 83.0636 77.9128 84.3207 77.4433 85.5949C77.1435 86.3948 76.7759 87.3833 76.6175 87.7833L76.3346 88.5204L76.5157 88.4918C76.6175 88.4747 78.6199 88.2576 80.9674 88.0176ZM110.297 84.9378C111.949 84.7663 113.357 84.6235 113.431 84.6235C113.544 84.6235 113.561 84.6006 113.538 84.4807C113.521 84.4007 112.809 82.6008 111.96 80.4866C110.608 77.1268 110.405 76.6525 110.348 76.7554C110.224 76.9954 107.112 84.4864 106.965 84.8978L106.818 85.3149L107.056 85.2806C107.192 85.2635 108.651 85.1092 110.297 84.9378Z" fill="white"/>
<path d="M41.4782 68.3788C40.6014 67.7331 39.4135 66.7846 38.9893 66.396C38.9044 66.316 38.6556 66.0989 38.4349 65.9104C38.2143 65.7218 38.0333 65.5332 38.0333 65.4875C38.0333 65.4418 38.0164 65.4247 37.9937 65.4475C37.9711 65.4704 37.8862 65.419 37.8071 65.339C37.7279 65.259 37.3715 64.9047 37.0095 64.5561C35.6915 63.2591 34.8656 62.3163 33.6268 60.7107C33.3326 60.3335 33.0385 59.9336 32.965 59.825C32.8914 59.7164 32.7613 59.5222 32.6708 59.3964C32.0373 58.4994 31.1718 57.1394 31.234 57.1394C31.2566 57.1394 31.2453 57.1166 31.2114 57.0937C31.1039 57.0194 30.7758 56.4252 30.7815 56.3166C30.7815 56.2595 30.7702 56.2309 30.7532 56.2481C30.7306 56.2652 30.6174 56.1109 30.493 55.8995C30.2384 55.4595 29.3164 53.5854 29.0732 53.0254C28.7394 52.254 28.4849 51.5969 28.5132 51.5969C28.5301 51.5969 28.5188 51.5626 28.4849 51.5226C28.4 51.4255 27.9136 50.077 27.5911 49.0599C27.0255 47.2886 26.4202 44.5287 26.1826 42.6546C25.8036 39.6033 25.7753 36.4321 26.1034 33.478C26.3354 31.3524 26.7935 29.0268 27.3196 27.2555C27.3988 26.9869 27.5006 26.6441 27.5459 26.4841C27.5911 26.3298 27.6477 26.1584 27.6647 26.1127C27.6816 26.067 27.7043 26.0155 27.7099 25.9984C27.84 25.547 28.3095 24.2156 28.4679 23.8557C28.4962 23.7928 28.6659 23.3814 28.8469 22.9414C29.2372 21.9929 30.1197 20.1759 30.6344 19.2559C31.1096 18.4103 31.5734 17.6446 31.6583 17.5703C31.6979 17.536 31.7318 17.4789 31.7431 17.4332C31.7657 17.336 32.3654 16.4161 32.7953 15.8219C32.965 15.5876 33.1856 15.2847 33.2874 15.1419C33.3949 14.999 33.6664 14.6448 33.904 14.3477C34.1359 14.0562 34.3961 13.7248 34.4753 13.6163C34.5601 13.5134 34.6902 13.3649 34.7581 13.2906C34.8317 13.2163 34.9731 13.0563 35.0636 12.9363C35.4369 12.4563 37.7448 10.0336 37.7901 10.0736C37.8014 10.085 37.9711 9.93077 38.1747 9.73649C38.3784 9.5365 38.7065 9.23938 38.8988 9.0851C39.0911 8.92511 39.3061 8.74226 39.3683 8.68513C39.4362 8.62227 39.7529 8.36514 40.0754 8.11373C40.3978 7.86232 40.7485 7.58805 40.856 7.49662C41.1445 7.26235 41.812 6.79952 42.7283 6.18813C43.8823 5.42246 43.9162 5.3996 44.2104 5.23961C44.3518 5.15962 44.5837 5.02248 44.7195 4.93677C45.0363 4.73107 47.5422 3.45686 48.1587 3.1883C48.4246 3.07402 48.7527 2.92546 48.8941 2.86832C50.0028 2.37692 52.4182 1.56554 53.8437 1.19985C54.9637 0.914151 56.6946 0.542744 57.1811 0.485604C57.3395 0.468462 57.6054 0.428465 57.7751 0.399895C58.2785 0.308472 60.1056 0.119911 61.1521 0.057058C63.7541 -0.0972188 66.639 0.0627719 69.3712 0.519888C70.3781 0.691307 71.566 0.937007 71.747 1.01129C71.7923 1.02843 71.8488 1.03986 71.8771 1.03986C71.9224 1.02843 72.9632 1.29699 73.1046 1.35413C73.1498 1.37127 73.2404 1.39984 73.3026 1.41126C73.7721 1.49697 75.7406 2.17122 76.9794 2.66833C80.0227 3.88541 82.7435 5.42246 85.4927 7.47377C85.849 7.74232 86.1941 8.00517 86.2563 8.0623C86.3185 8.11944 86.5335 8.29658 86.7371 8.45657C86.9408 8.61656 87.2576 8.89083 87.4442 9.05653C87.6309 9.22795 87.8345 9.4108 87.8968 9.46222C87.959 9.51365 87.9194 9.49651 87.8119 9.42794C87.4838 9.22795 86.46 8.61084 86.2393 8.47942C86.1262 8.41085 85.702 8.1823 85.2947 7.97088C84.8931 7.75375 84.5537 7.55948 84.5424 7.53662C84.531 7.50805 84.4914 7.4852 84.4518 7.4852C84.4123 7.4852 84.0106 7.30806 83.5638 7.09093C82.6587 6.65667 81.3577 6.11385 80.2942 5.73101C79.457 5.43389 77.7883 4.91392 77.6582 4.91392C77.6073 4.91392 77.579 4.89106 77.596 4.86249C77.613 4.83392 77.5734 4.81107 77.4998 4.81678C77.3414 4.82249 76.0913 4.51394 76.0121 4.45109C75.9782 4.42252 75.9386 4.41109 75.9216 4.42823C75.9103 4.44537 75.52 4.38252 75.0618 4.28538C74.598 4.19396 73.789 4.05111 73.2517 3.97112C65.9206 2.90261 58.533 3.98826 51.9261 7.11379C51.6206 7.25664 51.3378 7.38234 51.3038 7.38806C51.2699 7.39377 51.2303 7.41091 51.2133 7.42806C51.1794 7.46234 51.1059 7.50234 50.3366 7.91374C49.9972 8.09659 49.505 8.37086 49.2561 8.51942C49.0016 8.6737 48.7753 8.7994 48.7583 8.7994C48.7357 8.7994 48.6509 8.84512 48.566 8.90226C48.4812 8.96511 48.3115 9.07367 48.187 9.15367C47.7006 9.45651 46.4221 10.3136 46.2298 10.4679C46.1167 10.5536 46.0092 10.6107 45.9866 10.5879C45.9696 10.5707 45.9526 10.5764 45.9526 10.6107C45.9526 10.6393 45.8339 10.7536 45.6868 10.8621C45.1098 11.2735 44.0237 12.1535 43.294 12.7877C42.5813 13.4048 40.2451 15.7419 39.7756 16.2961C39.6624 16.4332 39.4475 16.6847 39.3004 16.8561C39.1477 17.0275 38.9836 17.2218 38.9271 17.2846C38.8196 17.416 38.7234 17.5418 37.9881 18.5246C37.7052 18.9131 37.4054 19.2959 37.3319 19.3874C37.2584 19.4731 37.2131 19.5416 37.2301 19.5416C37.247 19.5416 37.2188 19.5873 37.1735 19.6445C36.7889 20.0787 35.2106 22.7072 34.5601 23.9985C34.4357 24.2328 34.3056 24.4671 34.266 24.5128C34.2264 24.5585 34.1981 24.6213 34.1981 24.6442C34.1981 24.7242 34.0623 25.027 34.0171 25.027C34.0001 25.027 33.9775 25.0613 33.9775 25.1013C33.9775 25.1413 33.8644 25.427 33.7229 25.7413C32.767 27.844 31.8732 30.5067 31.3585 32.7751C29.7633 39.8033 30.1706 47.1743 32.5294 53.9111C32.9027 54.9796 33.4401 56.3109 33.8474 57.168C34.0397 57.5794 34.2038 57.9394 34.2094 57.968C34.2151 58.0022 34.3282 58.2308 34.4583 58.4822C34.5941 58.7336 34.7242 58.9793 34.7525 59.0308C35.0127 59.5222 35.4595 60.3107 35.7876 60.8535C36.0026 61.2135 36.2119 61.562 36.2458 61.6249C36.2798 61.6877 36.523 62.0591 36.7889 62.4534C37.0547 62.8477 37.264 63.1848 37.2584 63.2077C37.247 63.2362 37.264 63.2534 37.2923 63.2534C37.3376 63.2534 37.6826 63.6933 37.8353 63.9448C37.9372 64.1162 39.5097 66.0646 39.6738 66.2246C39.6907 66.2418 39.8265 66.396 39.9792 66.5675C40.1319 66.7389 40.7033 67.3388 41.2463 67.8988C41.795 68.4531 42.2306 68.9102 42.2136 68.9045C42.2023 68.9045 41.8685 68.6645 41.4782 68.3788Z" fill="white"/>
<path d="M90.3066 64.1391C91.5227 62.842 92.4844 61.6535 93.4969 60.1964C93.8024 59.7565 94.0795 59.3793 94.1135 59.3565C94.1474 59.3336 94.1587 59.3108 94.1361 59.3108C94.1135 59.3108 94.1814 59.1679 94.2945 58.9908C95.5276 57.048 96.7269 54.4539 97.4339 52.2255C97.5414 51.8941 97.6432 51.6198 97.6659 51.6084C97.6885 51.5969 97.6885 51.5512 97.6715 51.4998C97.6489 51.4427 97.6602 51.4198 97.6941 51.4427C97.7337 51.4655 97.7564 51.4312 97.7507 51.3512C97.7507 51.2827 97.8469 50.8541 97.96 50.397C98.8594 46.8829 99.1196 43.0546 98.701 39.5576C98.6558 39.1691 98.6218 38.8377 98.6275 38.8148C98.6275 38.7862 98.6218 38.7291 98.6049 38.6834C98.5822 38.6377 98.5257 38.3177 98.4748 37.9692C98.2202 36.3235 97.5301 33.7294 96.9588 32.3009C96.8796 32.1009 96.8287 31.9409 96.8456 31.9409C96.8626 31.9409 96.8513 31.9066 96.8174 31.8724C96.7891 31.8324 96.6533 31.541 96.5232 31.2267C96.065 30.1296 95.2618 28.5297 94.7866 27.7412C94.747 27.6783 94.6848 27.564 94.6452 27.4841C94.6056 27.4041 94.2945 26.9184 93.9608 26.4041C92.7559 24.5757 91.6585 23.1986 90.1651 21.6615C89.5995 21.0787 89.0791 20.553 88.9999 20.4902C88.9207 20.4273 88.7397 20.2559 88.5926 20.1073C88.4399 19.9645 88.3211 19.8559 88.3211 19.8674C88.3211 19.8845 88.1514 19.7474 87.9421 19.5588C87.7271 19.376 87.416 19.1074 87.2463 18.9703C87.0766 18.8274 86.9126 18.6846 86.8899 18.6446C86.8673 18.6046 86.8221 18.5703 86.7881 18.5703C86.7598 18.5703 86.4883 18.3817 86.1828 18.1532C85.883 17.9189 85.4305 17.5932 85.1816 17.4275C84.9327 17.2618 84.7008 17.0847 84.6612 17.0447C84.6273 16.9989 84.5764 16.9647 84.5481 16.959C84.4576 16.959 83.5695 16.3933 83.5695 16.3361C83.5695 16.3018 83.5468 16.2904 83.5186 16.3076C83.4903 16.3304 83.281 16.2333 83.0491 16.0961C81.6915 15.2848 79.7569 14.3477 78.3427 13.822C78.0995 13.7306 77.8676 13.6334 77.8336 13.6163C77.7997 13.5934 77.7318 13.5706 77.6866 13.5592C77.6413 13.5534 77.5565 13.5249 77.4886 13.4906C77.4263 13.462 77.2284 13.3934 77.0473 13.342C76.8663 13.2906 76.6514 13.222 76.5665 13.1877C76.4817 13.1535 76.3855 13.1192 76.3516 13.1135C76.3176 13.102 76.0801 13.0335 75.8142 12.9535C73.9249 12.3706 70.8477 11.7821 68.9187 11.6335C67.9628 11.5593 64.5461 11.5307 63.6241 11.5936C61.5085 11.7364 58.8329 12.1649 57.1529 12.6335C53.1593 13.7534 50.0255 15.1819 46.7616 17.3761C46.3487 17.6561 46.0093 17.8618 46.0093 17.8389C46.0093 17.7532 47.8364 16.2561 47.9043 16.2904C47.9212 16.3018 47.9608 16.2733 47.9891 16.2219C48.0796 16.0619 49.9859 14.7591 51.1003 14.102C51.8809 13.6391 53.0801 13.0163 53.0801 13.0678C53.0801 13.0906 53.1027 13.0849 53.1254 13.0506C53.1932 12.9478 55.2805 11.9707 55.5407 11.9192C55.5747 11.9135 55.6256 11.8907 55.6652 11.8678C55.7444 11.8164 56.6099 11.4964 57.4074 11.2164C58.6236 10.7993 60.3546 10.3308 61.4237 10.1308C61.4859 10.1194 61.8027 10.0622 62.1307 9.99936C62.4588 9.93651 62.7586 9.89651 62.7982 9.91365C62.8322 9.92508 62.8661 9.91936 62.8661 9.89079C62.8661 9.8508 64.1728 9.66795 65.4399 9.53653C66.3902 9.43939 69.1903 9.40511 70.3612 9.47939C71.5208 9.55367 72.9689 9.69652 73.1047 9.75366C73.1499 9.7708 73.2121 9.78223 73.2404 9.77652C73.3253 9.75937 74.4227 9.93651 75.1693 10.0965C75.5427 10.1708 75.9104 10.2451 75.9896 10.2622C76.295 10.3193 78.2918 10.8565 78.4502 10.9193C78.5464 10.9593 78.6708 10.9993 78.733 11.0107C78.8914 11.0393 79.5419 11.2564 79.7795 11.3593C79.887 11.4107 80.0058 11.4564 80.0454 11.4621C80.3848 11.525 82.5004 12.4278 83.5978 12.9706C85.2721 13.8049 87.8007 15.359 88.5134 15.9876C88.5813 16.0447 88.7453 16.1647 88.8811 16.2561C89.0168 16.3533 89.2035 16.4961 89.294 16.5761C89.3789 16.6618 89.4524 16.719 89.4524 16.7075C89.4524 16.6904 89.69 16.879 89.9785 17.1247C91.6472 18.5246 92.9539 19.8388 94.2606 21.4273C94.4812 21.6958 94.6961 21.9529 94.7357 21.9987C95.1713 22.4958 97.0097 25.187 96.9531 25.2385C96.9362 25.2556 96.9758 25.3185 97.0323 25.387C97.1681 25.5299 97.7564 26.5984 98.2089 27.5126C99.3516 29.8439 100.228 32.4323 100.732 34.9693C101.416 38.4263 101.478 42.1975 100.901 45.683C100.624 47.3572 100.392 48.3228 99.8041 50.1456C99.3459 51.5855 98.9047 52.6769 98.1863 54.1396C97.6772 55.1796 96.823 56.7052 96.6759 56.8252C96.6364 56.8595 96.6024 56.9109 96.5968 56.9509C96.5515 57.1737 94.8771 59.5393 94.764 59.5393C94.7301 59.5393 94.7187 59.5622 94.7357 59.585C94.747 59.6079 94.6396 59.7565 94.4981 59.9164C94.3511 60.0764 94.2266 60.225 94.221 60.2479C94.204 60.3279 92.9256 61.7506 92.3656 62.3106C91.7773 62.9048 90.8722 63.7505 90.5272 64.0305C90.4197 64.1219 90.3179 64.2076 90.3009 64.2248C90.0294 64.499 90.035 64.4248 90.3066 64.1391Z" fill="white"/>
<path d="M63.8672 62.7448C66.6729 51.4083 67.0689 41.9575 65.0721 34.1236C64.6366 32.4323 64.6535 32.4437 64.5687 33.8551C63.9351 44.7744 61.6894 54.231 57.8542 62.1677C57.4979 62.9048 57.1358 63.6248 57.0566 63.7619L56.9152 64.0076L56.5532 63.6076C53.7814 60.5392 51.762 57.568 50.5741 54.7967C49.8444 53.0939 49.4371 51.7055 49.143 49.8827C49.0016 49.037 48.9733 46.6772 49.0864 45.6829C49.3975 42.9745 50.2517 40.4204 51.8808 37.3406C52.8764 35.4607 53.7022 34.1522 57.4413 28.5411C59.9076 24.8442 61.169 22.6271 62.2042 20.1701C62.7642 18.8388 63.3695 16.7989 63.5448 15.6276C63.5844 15.3761 63.6353 15.1476 63.658 15.1247C63.6806 15.0962 64.1105 15.5361 64.6083 16.0961C68.8281 20.8387 71.7753 25.0556 73.8682 29.341C75.4691 32.6094 76.3741 35.4721 76.7871 38.5405C76.9341 39.6547 76.9963 42.0603 76.9002 43.2088C76.4986 47.9857 74.4848 52.5797 70.791 57.1394C69.094 59.2307 66.5655 61.7849 64.1331 63.859C63.7881 64.1562 63.4939 64.3961 63.4769 64.3961C63.4656 64.3961 63.641 63.6533 63.8672 62.7448Z" fill="white"/>
</svg>
